<mxfile host="65bd71144e">
    <diagram id="p7CzTCVPJ4TxoK-VdhsW" name="Page-1">
        <mxGraphModel dx="2702" dy="1868" grid="1" gridSize="10" guides="1" tooltips="1" connect="1" arrows="1" fold="1" page="1" pageScale="1" pageWidth="827" pageHeight="1169" math="0" shadow="0">
            <root>
                <mxCell id="0"/>
                <mxCell id="1" parent="0"/>
                <mxCell id="27" value="Students" style="shape=table;startSize=40;container=1;collapsible=0;childLayout=tableLayout;fontStyle=1;align=center;pointerEvents=1;column=4" parent="1" vertex="1">
                    <mxGeometry x="123" y="40" width="600" height="316" as="geometry"/>
                </mxCell>
                <mxCell id="28" value="" style="shape=partialRectangle;html=1;whiteSpace=wrap;collapsible=0;dropTarget=0;pointerEvents=0;fillColor=none;top=0;left=0;bottom=0;right=0;points=[[0,0.5],[1,0.5]];portConstraint=eastwest;" parent="27" vertex="1">
                    <mxGeometry y="40" width="600" height="39" as="geometry"/>
                </mxCell>
                <mxCell id="29" value="Field" style="shape=partialRectangle;html=1;whiteSpace=wrap;connectable=0;fillColor=none;top=0;left=0;bottom=0;right=0;overflow=hidden;pointerEvents=1;" parent="28" vertex="1">
                    <mxGeometry width="120" height="39" as="geometry">
                        <mxRectangle width="120" height="39" as="alternateBounds"/>
                    </mxGeometry>
                </mxCell>
                <mxCell id="30" value="Type" style="shape=partialRectangle;html=1;whiteSpace=wrap;connectable=0;fillColor=none;top=0;left=0;bottom=0;right=0;overflow=hidden;pointerEvents=1;" parent="28" vertex="1">
                    <mxGeometry x="120" width="80" height="39" as="geometry">
                        <mxRectangle width="80" height="39" as="alternateBounds"/>
                    </mxGeometry>
                </mxCell>
                <mxCell id="31" value="Length" style="shape=partialRectangle;html=1;whiteSpace=wrap;connectable=0;fillColor=none;top=0;left=0;bottom=0;right=0;overflow=hidden;pointerEvents=1;" parent="28" vertex="1">
                    <mxGeometry x="200" width="80" height="39" as="geometry">
                        <mxRectangle width="80" height="39" as="alternateBounds"/>
                    </mxGeometry>
                </mxCell>
                <mxCell id="55" value="Comment" style="shape=partialRectangle;html=1;whiteSpace=wrap;connectable=0;fillColor=none;top=0;left=0;bottom=0;right=0;overflow=hidden;pointerEvents=1;" parent="28" vertex="1">
                    <mxGeometry x="280" width="320" height="39" as="geometry">
                        <mxRectangle width="320" height="39" as="alternateBounds"/>
                    </mxGeometry>
                </mxCell>
                <mxCell id="32" value="" style="shape=partialRectangle;html=1;whiteSpace=wrap;collapsible=0;dropTarget=0;pointerEvents=0;fillColor=none;top=0;left=0;bottom=0;right=0;points=[[0,0.5],[1,0.5]];portConstraint=eastwest;" parent="27" vertex="1">
                    <mxGeometry y="79" width="600" height="38" as="geometry"/>
                </mxCell>
                <mxCell id="33" value="student_id" style="shape=partialRectangle;html=1;whiteSpace=wrap;connectable=0;fillColor=none;top=0;left=0;bottom=0;right=0;overflow=hidden;pointerEvents=1;" parent="32" vertex="1">
                    <mxGeometry width="120" height="38" as="geometry">
                        <mxRectangle width="120" height="38" as="alternateBounds"/>
                    </mxGeometry>
                </mxCell>
                <mxCell id="34" value="int" style="shape=partialRectangle;html=1;whiteSpace=wrap;connectable=0;fillColor=none;top=0;left=0;bottom=0;right=0;overflow=hidden;pointerEvents=1;" parent="32" vertex="1">
                    <mxGeometry x="120" width="80" height="38" as="geometry">
                        <mxRectangle width="80" height="38" as="alternateBounds"/>
                    </mxGeometry>
                </mxCell>
                <mxCell id="35" value="8" style="shape=partialRectangle;html=1;whiteSpace=wrap;connectable=0;fillColor=none;top=0;left=0;bottom=0;right=0;overflow=hidden;pointerEvents=1;" parent="32" vertex="1">
                    <mxGeometry x="200" width="80" height="38" as="geometry">
                        <mxRectangle width="80" height="38" as="alternateBounds"/>
                    </mxGeometry>
                </mxCell>
                <mxCell id="56" value="Уникальный идентификатор ученика" style="shape=partialRectangle;html=1;whiteSpace=wrap;connectable=0;fillColor=none;top=0;left=0;bottom=0;right=0;overflow=hidden;pointerEvents=1;" parent="32" vertex="1">
                    <mxGeometry x="280" width="320" height="38" as="geometry">
                        <mxRectangle width="320" height="38" as="alternateBounds"/>
                    </mxGeometry>
                </mxCell>
                <mxCell id="36" value="" style="shape=partialRectangle;html=1;whiteSpace=wrap;collapsible=0;dropTarget=0;pointerEvents=0;fillColor=none;top=0;left=0;bottom=0;right=0;points=[[0,0.5],[1,0.5]];portConstraint=eastwest;" parent="27" vertex="1">
                    <mxGeometry y="117" width="600" height="39" as="geometry"/>
                </mxCell>
                <mxCell id="37" value="firstNamePupil" style="shape=partialRectangle;html=1;whiteSpace=wrap;connectable=0;fillColor=none;top=0;left=0;bottom=0;right=0;overflow=hidden;pointerEvents=1;" parent="36" vertex="1">
                    <mxGeometry width="120" height="39" as="geometry">
                        <mxRectangle width="120" height="39" as="alternateBounds"/>
                    </mxGeometry>
                </mxCell>
                <mxCell id="38" value="string" style="shape=partialRectangle;html=1;whiteSpace=wrap;connectable=0;fillColor=none;top=0;left=0;bottom=0;right=0;overflow=hidden;pointerEvents=1;" parent="36" vertex="1">
                    <mxGeometry x="120" width="80" height="39" as="geometry">
                        <mxRectangle width="80" height="39" as="alternateBounds"/>
                    </mxGeometry>
                </mxCell>
                <mxCell id="39" value="64" style="shape=partialRectangle;html=1;whiteSpace=wrap;connectable=0;fillColor=none;top=0;left=0;bottom=0;right=0;overflow=hidden;pointerEvents=1;" parent="36" vertex="1">
                    <mxGeometry x="200" width="80" height="39" as="geometry">
                        <mxRectangle width="80" height="39" as="alternateBounds"/>
                    </mxGeometry>
                </mxCell>
                <mxCell id="57" value="Фамилия ученика" style="shape=partialRectangle;html=1;whiteSpace=wrap;connectable=0;fillColor=none;top=0;left=0;bottom=0;right=0;overflow=hidden;pointerEvents=1;" parent="36" vertex="1">
                    <mxGeometry x="280" width="320" height="39" as="geometry">
                        <mxRectangle width="320" height="39" as="alternateBounds"/>
                    </mxGeometry>
                </mxCell>
                <mxCell id="58" value="" style="shape=partialRectangle;html=1;whiteSpace=wrap;collapsible=0;dropTarget=0;pointerEvents=0;fillColor=none;top=0;left=0;bottom=0;right=0;points=[[0,0.5],[1,0.5]];portConstraint=eastwest;" parent="27" vertex="1">
                    <mxGeometry y="156" width="600" height="44" as="geometry"/>
                </mxCell>
                <mxCell id="59" value="secondNamePupil" style="shape=partialRectangle;html=1;whiteSpace=wrap;connectable=0;fillColor=none;top=0;left=0;bottom=0;right=0;overflow=hidden;pointerEvents=1;" parent="58" vertex="1">
                    <mxGeometry width="120" height="44" as="geometry">
                        <mxRectangle width="120" height="44" as="alternateBounds"/>
                    </mxGeometry>
                </mxCell>
                <mxCell id="60" value="string" style="shape=partialRectangle;html=1;whiteSpace=wrap;connectable=0;fillColor=none;top=0;left=0;bottom=0;right=0;overflow=hidden;pointerEvents=1;" parent="58" vertex="1">
                    <mxGeometry x="120" width="80" height="44" as="geometry">
                        <mxRectangle width="80" height="44" as="alternateBounds"/>
                    </mxGeometry>
                </mxCell>
                <mxCell id="61" value="64" style="shape=partialRectangle;html=1;whiteSpace=wrap;connectable=0;fillColor=none;top=0;left=0;bottom=0;right=0;overflow=hidden;pointerEvents=1;" parent="58" vertex="1">
                    <mxGeometry x="200" width="80" height="44" as="geometry">
                        <mxRectangle width="80" height="44" as="alternateBounds"/>
                    </mxGeometry>
                </mxCell>
                <mxCell id="62" value="Имя ученика" style="shape=partialRectangle;html=1;whiteSpace=wrap;connectable=0;fillColor=none;top=0;left=0;bottom=0;right=0;overflow=hidden;pointerEvents=1;" parent="58" vertex="1">
                    <mxGeometry x="280" width="320" height="44" as="geometry">
                        <mxRectangle width="320" height="44" as="alternateBounds"/>
                    </mxGeometry>
                </mxCell>
                <mxCell id="63" value="" style="shape=partialRectangle;html=1;whiteSpace=wrap;collapsible=0;dropTarget=0;pointerEvents=0;fillColor=none;top=0;left=0;bottom=0;right=0;points=[[0,0.5],[1,0.5]];portConstraint=eastwest;" parent="27" vertex="1">
                    <mxGeometry y="200" width="600" height="39" as="geometry"/>
                </mxCell>
                <mxCell id="64" value="patronymicPupil" style="shape=partialRectangle;html=1;whiteSpace=wrap;connectable=0;fillColor=none;top=0;left=0;bottom=0;right=0;overflow=hidden;pointerEvents=1;" parent="63" vertex="1">
                    <mxGeometry width="120" height="39" as="geometry">
                        <mxRectangle width="120" height="39" as="alternateBounds"/>
                    </mxGeometry>
                </mxCell>
                <mxCell id="65" value="string" style="shape=partialRectangle;html=1;whiteSpace=wrap;connectable=0;fillColor=none;top=0;left=0;bottom=0;right=0;overflow=hidden;pointerEvents=1;" parent="63" vertex="1">
                    <mxGeometry x="120" width="80" height="39" as="geometry">
                        <mxRectangle width="80" height="39" as="alternateBounds"/>
                    </mxGeometry>
                </mxCell>
                <mxCell id="66" value="64" style="shape=partialRectangle;html=1;whiteSpace=wrap;connectable=0;fillColor=none;top=0;left=0;bottom=0;right=0;overflow=hidden;pointerEvents=1;" parent="63" vertex="1">
                    <mxGeometry x="200" width="80" height="39" as="geometry">
                        <mxRectangle width="80" height="39" as="alternateBounds"/>
                    </mxGeometry>
                </mxCell>
                <mxCell id="67" value="Отчество ученика" style="shape=partialRectangle;html=1;whiteSpace=wrap;connectable=0;fillColor=none;top=0;left=0;bottom=0;right=0;overflow=hidden;pointerEvents=1;" parent="63" vertex="1">
                    <mxGeometry x="280" width="320" height="39" as="geometry">
                        <mxRectangle width="320" height="39" as="alternateBounds"/>
                    </mxGeometry>
                </mxCell>
                <mxCell id="68" value="" style="shape=partialRectangle;html=1;whiteSpace=wrap;collapsible=0;dropTarget=0;pointerEvents=0;fillColor=none;top=0;left=0;bottom=0;right=0;points=[[0,0.5],[1,0.5]];portConstraint=eastwest;" parent="27" vertex="1">
                    <mxGeometry y="239" width="600" height="38" as="geometry"/>
                </mxCell>
                <mxCell id="69" value="dateBirth" style="shape=partialRectangle;html=1;whiteSpace=wrap;connectable=0;fillColor=none;top=0;left=0;bottom=0;right=0;overflow=hidden;pointerEvents=1;" parent="68" vertex="1">
                    <mxGeometry width="120" height="38" as="geometry">
                        <mxRectangle width="120" height="38" as="alternateBounds"/>
                    </mxGeometry>
                </mxCell>
                <mxCell id="70" value="date" style="shape=partialRectangle;html=1;whiteSpace=wrap;connectable=0;fillColor=none;top=0;left=0;bottom=0;right=0;overflow=hidden;pointerEvents=1;" parent="68" vertex="1">
                    <mxGeometry x="120" width="80" height="38" as="geometry">
                        <mxRectangle width="80" height="38" as="alternateBounds"/>
                    </mxGeometry>
                </mxCell>
                <mxCell id="71" value="8" style="shape=partialRectangle;html=1;whiteSpace=wrap;connectable=0;fillColor=none;top=0;left=0;bottom=0;right=0;overflow=hidden;pointerEvents=1;" parent="68" vertex="1">
                    <mxGeometry x="200" width="80" height="38" as="geometry">
                        <mxRectangle width="80" height="38" as="alternateBounds"/>
                    </mxGeometry>
                </mxCell>
                <mxCell id="72" value="Дата рождения ученика" style="shape=partialRectangle;html=1;whiteSpace=wrap;connectable=0;fillColor=none;top=0;left=0;bottom=0;right=0;overflow=hidden;pointerEvents=1;" parent="68" vertex="1">
                    <mxGeometry x="280" width="320" height="38" as="geometry">
                        <mxRectangle width="320" height="38" as="alternateBounds"/>
                    </mxGeometry>
                </mxCell>
                <mxCell id="106" value="" style="shape=partialRectangle;html=1;whiteSpace=wrap;collapsible=0;dropTarget=0;pointerEvents=0;fillColor=none;top=0;left=0;bottom=0;right=0;points=[[0,0.5],[1,0.5]];portConstraint=eastwest;" parent="27" vertex="1">
                    <mxGeometry y="277" width="600" height="39" as="geometry"/>
                </mxCell>
                <mxCell id="107" value="class_id" style="shape=partialRectangle;html=1;whiteSpace=wrap;connectable=0;fillColor=none;top=0;left=0;bottom=0;right=0;overflow=hidden;pointerEvents=1;" parent="106" vertex="1">
                    <mxGeometry width="120" height="39" as="geometry">
                        <mxRectangle width="120" height="39" as="alternateBounds"/>
                    </mxGeometry>
                </mxCell>
                <mxCell id="108" value="int" style="shape=partialRectangle;html=1;whiteSpace=wrap;connectable=0;fillColor=none;top=0;left=0;bottom=0;right=0;overflow=hidden;pointerEvents=1;" parent="106" vertex="1">
                    <mxGeometry x="120" width="80" height="39" as="geometry">
                        <mxRectangle width="80" height="39" as="alternateBounds"/>
                    </mxGeometry>
                </mxCell>
                <mxCell id="109" value="8" style="shape=partialRectangle;html=1;whiteSpace=wrap;connectable=0;fillColor=none;top=0;left=0;bottom=0;right=0;overflow=hidden;pointerEvents=1;" parent="106" vertex="1">
                    <mxGeometry x="200" width="80" height="39" as="geometry">
                        <mxRectangle width="80" height="39" as="alternateBounds"/>
                    </mxGeometry>
                </mxCell>
                <mxCell id="110" value="Школьный класс ученика" style="shape=partialRectangle;html=1;whiteSpace=wrap;connectable=0;fillColor=none;top=0;left=0;bottom=0;right=0;overflow=hidden;pointerEvents=1;" parent="106" vertex="1">
                    <mxGeometry x="280" width="320" height="39" as="geometry">
                        <mxRectangle width="320" height="39" as="alternateBounds"/>
                    </mxGeometry>
                </mxCell>
                <mxCell id="111" value="Classroom" style="shape=table;startSize=40;container=1;collapsible=0;childLayout=tableLayout;fontStyle=1;align=center;pointerEvents=1;column=4" parent="1" vertex="1">
                    <mxGeometry x="123" y="400" width="600" height="237" as="geometry"/>
                </mxCell>
                <mxCell id="112" value="" style="shape=partialRectangle;html=1;whiteSpace=wrap;collapsible=0;dropTarget=0;pointerEvents=0;fillColor=none;top=0;left=0;bottom=0;right=0;points=[[0,0.5],[1,0.5]];portConstraint=eastwest;" parent="111" vertex="1">
                    <mxGeometry y="40" width="600" height="38" as="geometry"/>
                </mxCell>
                <mxCell id="113" value="Field" style="shape=partialRectangle;html=1;whiteSpace=wrap;connectable=0;fillColor=none;top=0;left=0;bottom=0;right=0;overflow=hidden;pointerEvents=1;" parent="112" vertex="1">
                    <mxGeometry width="120" height="38" as="geometry">
                        <mxRectangle width="120" height="38" as="alternateBounds"/>
                    </mxGeometry>
                </mxCell>
                <mxCell id="114" value="Type" style="shape=partialRectangle;html=1;whiteSpace=wrap;connectable=0;fillColor=none;top=0;left=0;bottom=0;right=0;overflow=hidden;pointerEvents=1;" parent="112" vertex="1">
                    <mxGeometry x="120" width="80" height="38" as="geometry">
                        <mxRectangle width="80" height="38" as="alternateBounds"/>
                    </mxGeometry>
                </mxCell>
                <mxCell id="115" value="Length" style="shape=partialRectangle;html=1;whiteSpace=wrap;connectable=0;fillColor=none;top=0;left=0;bottom=0;right=0;overflow=hidden;pointerEvents=1;" parent="112" vertex="1">
                    <mxGeometry x="200" width="80" height="38" as="geometry">
                        <mxRectangle width="80" height="38" as="alternateBounds"/>
                    </mxGeometry>
                </mxCell>
                <mxCell id="116" value="Comment" style="shape=partialRectangle;html=1;whiteSpace=wrap;connectable=0;fillColor=none;top=0;left=0;bottom=0;right=0;overflow=hidden;pointerEvents=1;" parent="112" vertex="1">
                    <mxGeometry x="280" width="320" height="38" as="geometry">
                        <mxRectangle width="320" height="38" as="alternateBounds"/>
                    </mxGeometry>
                </mxCell>
                <mxCell id="117" value="" style="shape=partialRectangle;html=1;whiteSpace=wrap;collapsible=0;dropTarget=0;pointerEvents=0;fillColor=none;top=0;left=0;bottom=0;right=0;points=[[0,0.5],[1,0.5]];portConstraint=eastwest;" parent="111" vertex="1">
                    <mxGeometry y="78" width="600" height="39" as="geometry"/>
                </mxCell>
                <mxCell id="118" value="class_id" style="shape=partialRectangle;html=1;whiteSpace=wrap;connectable=0;fillColor=none;top=0;left=0;bottom=0;right=0;overflow=hidden;pointerEvents=1;" parent="117" vertex="1">
                    <mxGeometry width="120" height="39" as="geometry">
                        <mxRectangle width="120" height="39" as="alternateBounds"/>
                    </mxGeometry>
                </mxCell>
                <mxCell id="119" value="int" style="shape=partialRectangle;html=1;whiteSpace=wrap;connectable=0;fillColor=none;top=0;left=0;bottom=0;right=0;overflow=hidden;pointerEvents=1;" parent="117" vertex="1">
                    <mxGeometry x="120" width="80" height="39" as="geometry">
                        <mxRectangle width="80" height="39" as="alternateBounds"/>
                    </mxGeometry>
                </mxCell>
                <mxCell id="120" value="8" style="shape=partialRectangle;html=1;whiteSpace=wrap;connectable=0;fillColor=none;top=0;left=0;bottom=0;right=0;overflow=hidden;pointerEvents=1;" parent="117" vertex="1">
                    <mxGeometry x="200" width="80" height="39" as="geometry">
                        <mxRectangle width="80" height="39" as="alternateBounds"/>
                    </mxGeometry>
                </mxCell>
                <mxCell id="121" value="Уникальный идентификатор школьного класса" style="shape=partialRectangle;html=1;whiteSpace=wrap;connectable=0;fillColor=none;top=0;left=0;bottom=0;right=0;overflow=hidden;pointerEvents=1;" parent="117" vertex="1">
                    <mxGeometry x="280" width="320" height="39" as="geometry">
                        <mxRectangle width="320" height="39" as="alternateBounds"/>
                    </mxGeometry>
                </mxCell>
                <mxCell id="122" value="" style="shape=partialRectangle;html=1;whiteSpace=wrap;collapsible=0;dropTarget=0;pointerEvents=0;fillColor=none;top=0;left=0;bottom=0;right=0;points=[[0,0.5],[1,0.5]];portConstraint=eastwest;" parent="111" vertex="1">
                    <mxGeometry y="117" width="600" height="43" as="geometry"/>
                </mxCell>
                <mxCell id="123" value="numberClass" style="shape=partialRectangle;html=1;whiteSpace=wrap;connectable=0;fillColor=none;top=0;left=0;bottom=0;right=0;overflow=hidden;pointerEvents=1;" parent="122" vertex="1">
                    <mxGeometry width="120" height="43" as="geometry">
                        <mxRectangle width="120" height="43" as="alternateBounds"/>
                    </mxGeometry>
                </mxCell>
                <mxCell id="124" value="int" style="shape=partialRectangle;html=1;whiteSpace=wrap;connectable=0;fillColor=none;top=0;left=0;bottom=0;right=0;overflow=hidden;pointerEvents=1;" parent="122" vertex="1">
                    <mxGeometry x="120" width="80" height="43" as="geometry">
                        <mxRectangle width="80" height="43" as="alternateBounds"/>
                    </mxGeometry>
                </mxCell>
                <mxCell id="125" value="4" style="shape=partialRectangle;html=1;whiteSpace=wrap;connectable=0;fillColor=none;top=0;left=0;bottom=0;right=0;overflow=hidden;pointerEvents=1;" parent="122" vertex="1">
                    <mxGeometry x="200" width="80" height="43" as="geometry">
                        <mxRectangle width="80" height="43" as="alternateBounds"/>
                    </mxGeometry>
                </mxCell>
                <mxCell id="126" value="Номер класса" style="shape=partialRectangle;html=1;whiteSpace=wrap;connectable=0;fillColor=none;top=0;left=0;bottom=0;right=0;overflow=hidden;pointerEvents=1;" parent="122" vertex="1">
                    <mxGeometry x="280" width="320" height="43" as="geometry">
                        <mxRectangle width="320" height="43" as="alternateBounds"/>
                    </mxGeometry>
                </mxCell>
                <mxCell id="127" value="" style="shape=partialRectangle;html=1;whiteSpace=wrap;collapsible=0;dropTarget=0;pointerEvents=0;fillColor=none;top=0;left=0;bottom=0;right=0;points=[[0,0.5],[1,0.5]];portConstraint=eastwest;" parent="111" vertex="1">
                    <mxGeometry y="160" width="600" height="38" as="geometry"/>
                </mxCell>
                <mxCell id="128" value="letterClass" style="shape=partialRectangle;html=1;whiteSpace=wrap;connectable=0;fillColor=none;top=0;left=0;bottom=0;right=0;overflow=hidden;pointerEvents=1;" parent="127" vertex="1">
                    <mxGeometry width="120" height="38" as="geometry">
                        <mxRectangle width="120" height="38" as="alternateBounds"/>
                    </mxGeometry>
                </mxCell>
                <mxCell id="129" value="string" style="shape=partialRectangle;html=1;whiteSpace=wrap;connectable=0;fillColor=none;top=0;left=0;bottom=0;right=0;overflow=hidden;pointerEvents=1;" parent="127" vertex="1">
                    <mxGeometry x="120" width="80" height="38" as="geometry">
                        <mxRectangle width="80" height="38" as="alternateBounds"/>
                    </mxGeometry>
                </mxCell>
                <mxCell id="130" value="4" style="shape=partialRectangle;html=1;whiteSpace=wrap;connectable=0;fillColor=none;top=0;left=0;bottom=0;right=0;overflow=hidden;pointerEvents=1;" parent="127" vertex="1">
                    <mxGeometry x="200" width="80" height="38" as="geometry">
                        <mxRectangle width="80" height="38" as="alternateBounds"/>
                    </mxGeometry>
                </mxCell>
                <mxCell id="131" value="Буква класса" style="shape=partialRectangle;html=1;whiteSpace=wrap;connectable=0;fillColor=none;top=0;left=0;bottom=0;right=0;overflow=hidden;pointerEvents=1;" parent="127" vertex="1">
                    <mxGeometry x="280" width="320" height="38" as="geometry">
                        <mxRectangle width="320" height="38" as="alternateBounds"/>
                    </mxGeometry>
                </mxCell>
                <mxCell id="132" value="" style="shape=partialRectangle;html=1;whiteSpace=wrap;collapsible=0;dropTarget=0;pointerEvents=0;fillColor=none;top=0;left=0;bottom=0;right=0;points=[[0,0.5],[1,0.5]];portConstraint=eastwest;" parent="111" vertex="1">
                    <mxGeometry y="198" width="600" height="39" as="geometry"/>
                </mxCell>
                <mxCell id="133" value="teacher_id" style="shape=partialRectangle;html=1;whiteSpace=wrap;connectable=0;fillColor=none;top=0;left=0;bottom=0;right=0;overflow=hidden;pointerEvents=1;" parent="132" vertex="1">
                    <mxGeometry width="120" height="39" as="geometry">
                        <mxRectangle width="120" height="39" as="alternateBounds"/>
                    </mxGeometry>
                </mxCell>
                <mxCell id="134" value="int" style="shape=partialRectangle;html=1;whiteSpace=wrap;connectable=0;fillColor=none;top=0;left=0;bottom=0;right=0;overflow=hidden;pointerEvents=1;" parent="132" vertex="1">
                    <mxGeometry x="120" width="80" height="39" as="geometry">
                        <mxRectangle width="80" height="39" as="alternateBounds"/>
                    </mxGeometry>
                </mxCell>
                <mxCell id="135" value="10" style="shape=partialRectangle;html=1;whiteSpace=wrap;connectable=0;fillColor=none;top=0;left=0;bottom=0;right=0;overflow=hidden;pointerEvents=1;" parent="132" vertex="1">
                    <mxGeometry x="200" width="80" height="39" as="geometry">
                        <mxRectangle width="80" height="39" as="alternateBounds"/>
                    </mxGeometry>
                </mxCell>
                <mxCell id="136" value="Уникальный идентификатор классного руководителя" style="shape=partialRectangle;html=1;whiteSpace=wrap;connectable=0;fillColor=none;top=0;left=0;bottom=0;right=0;overflow=hidden;pointerEvents=1;" parent="132" vertex="1">
                    <mxGeometry x="280" width="320" height="39" as="geometry">
                        <mxRectangle width="320" height="39" as="alternateBounds"/>
                    </mxGeometry>
                </mxCell>
                <mxCell id="147" value="Teachers" style="shape=table;startSize=40;container=1;collapsible=0;childLayout=tableLayout;fontStyle=1;align=center;pointerEvents=1;column=4" parent="1" vertex="1">
                    <mxGeometry x="123" y="720" width="600" height="319.00000000000045" as="geometry"/>
                </mxCell>
                <mxCell id="148" value="" style="shape=partialRectangle;html=1;whiteSpace=wrap;collapsible=0;dropTarget=0;pointerEvents=0;fillColor=none;top=0;left=0;bottom=0;right=0;points=[[0,0.5],[1,0.5]];portConstraint=eastwest;" parent="147" vertex="1">
                    <mxGeometry y="40" width="600" height="39" as="geometry"/>
                </mxCell>
                <mxCell id="149" value="Field" style="shape=partialRectangle;html=1;whiteSpace=wrap;connectable=0;fillColor=none;top=0;left=0;bottom=0;right=0;overflow=hidden;pointerEvents=1;" parent="148" vertex="1">
                    <mxGeometry width="120" height="39" as="geometry">
                        <mxRectangle width="120" height="39" as="alternateBounds"/>
                    </mxGeometry>
                </mxCell>
                <mxCell id="150" value="Type" style="shape=partialRectangle;html=1;whiteSpace=wrap;connectable=0;fillColor=none;top=0;left=0;bottom=0;right=0;overflow=hidden;pointerEvents=1;" parent="148" vertex="1">
                    <mxGeometry x="120" width="80" height="39" as="geometry">
                        <mxRectangle width="80" height="39" as="alternateBounds"/>
                    </mxGeometry>
                </mxCell>
                <mxCell id="151" value="Length" style="shape=partialRectangle;html=1;whiteSpace=wrap;connectable=0;fillColor=none;top=0;left=0;bottom=0;right=0;overflow=hidden;pointerEvents=1;" parent="148" vertex="1">
                    <mxGeometry x="200" width="80" height="39" as="geometry">
                        <mxRectangle width="80" height="39" as="alternateBounds"/>
                    </mxGeometry>
                </mxCell>
                <mxCell id="152" value="Comment" style="shape=partialRectangle;html=1;whiteSpace=wrap;connectable=0;fillColor=none;top=0;left=0;bottom=0;right=0;overflow=hidden;pointerEvents=1;" parent="148" vertex="1">
                    <mxGeometry x="280" width="320" height="39" as="geometry">
                        <mxRectangle width="320" height="39" as="alternateBounds"/>
                    </mxGeometry>
                </mxCell>
                <mxCell id="153" value="" style="shape=partialRectangle;html=1;whiteSpace=wrap;collapsible=0;dropTarget=0;pointerEvents=0;fillColor=none;top=0;left=0;bottom=0;right=0;points=[[0,0.5],[1,0.5]];portConstraint=eastwest;" parent="147" vertex="1">
                    <mxGeometry y="79" width="600" height="38" as="geometry"/>
                </mxCell>
                <mxCell id="154" value="teacher_id" style="shape=partialRectangle;html=1;whiteSpace=wrap;connectable=0;fillColor=none;top=0;left=0;bottom=0;right=0;overflow=hidden;pointerEvents=1;" parent="153" vertex="1">
                    <mxGeometry width="120" height="38" as="geometry">
                        <mxRectangle width="120" height="38" as="alternateBounds"/>
                    </mxGeometry>
                </mxCell>
                <mxCell id="155" value="int" style="shape=partialRectangle;html=1;whiteSpace=wrap;connectable=0;fillColor=none;top=0;left=0;bottom=0;right=0;overflow=hidden;pointerEvents=1;" parent="153" vertex="1">
                    <mxGeometry x="120" width="80" height="38" as="geometry">
                        <mxRectangle width="80" height="38" as="alternateBounds"/>
                    </mxGeometry>
                </mxCell>
                <mxCell id="156" value="10" style="shape=partialRectangle;html=1;whiteSpace=wrap;connectable=0;fillColor=none;top=0;left=0;bottom=0;right=0;overflow=hidden;pointerEvents=1;" parent="153" vertex="1">
                    <mxGeometry x="200" width="80" height="38" as="geometry">
                        <mxRectangle width="80" height="38" as="alternateBounds"/>
                    </mxGeometry>
                </mxCell>
                <mxCell id="157" value="Уникальный идентификатор учителя" style="shape=partialRectangle;html=1;whiteSpace=wrap;connectable=0;fillColor=none;top=0;left=0;bottom=0;right=0;overflow=hidden;pointerEvents=1;" parent="153" vertex="1">
                    <mxGeometry x="280" width="320" height="38" as="geometry">
                        <mxRectangle width="320" height="38" as="alternateBounds"/>
                    </mxGeometry>
                </mxCell>
                <mxCell id="158" value="" style="shape=partialRectangle;html=1;whiteSpace=wrap;collapsible=0;dropTarget=0;pointerEvents=0;fillColor=none;top=0;left=0;bottom=0;right=0;points=[[0,0.5],[1,0.5]];portConstraint=eastwest;" parent="147" vertex="1">
                    <mxGeometry y="117" width="600" height="43" as="geometry"/>
                </mxCell>
                <mxCell id="159" value="firstNameTeacher" style="shape=partialRectangle;html=1;whiteSpace=wrap;connectable=0;fillColor=none;top=0;left=0;bottom=0;right=0;overflow=hidden;pointerEvents=1;" parent="158" vertex="1">
                    <mxGeometry width="120" height="43" as="geometry">
                        <mxRectangle width="120" height="43" as="alternateBounds"/>
                    </mxGeometry>
                </mxCell>
                <mxCell id="160" value="string" style="shape=partialRectangle;html=1;whiteSpace=wrap;connectable=0;fillColor=none;top=0;left=0;bottom=0;right=0;overflow=hidden;pointerEvents=1;" parent="158" vertex="1">
                    <mxGeometry x="120" width="80" height="43" as="geometry">
                        <mxRectangle width="80" height="43" as="alternateBounds"/>
                    </mxGeometry>
                </mxCell>
                <mxCell id="161" value="64" style="shape=partialRectangle;html=1;whiteSpace=wrap;connectable=0;fillColor=none;top=0;left=0;bottom=0;right=0;overflow=hidden;pointerEvents=1;" parent="158" vertex="1">
                    <mxGeometry x="200" width="80" height="43" as="geometry">
                        <mxRectangle width="80" height="43" as="alternateBounds"/>
                    </mxGeometry>
                </mxCell>
                <mxCell id="162" value="Фамилия учителя" style="shape=partialRectangle;html=1;whiteSpace=wrap;connectable=0;fillColor=none;top=0;left=0;bottom=0;right=0;overflow=hidden;pointerEvents=1;" parent="158" vertex="1">
                    <mxGeometry x="280" width="320" height="43" as="geometry">
                        <mxRectangle width="320" height="43" as="alternateBounds"/>
                    </mxGeometry>
                </mxCell>
                <mxCell id="163" value="" style="shape=partialRectangle;html=1;whiteSpace=wrap;collapsible=0;dropTarget=0;pointerEvents=0;fillColor=none;top=0;left=0;bottom=0;right=0;points=[[0,0.5],[1,0.5]];portConstraint=eastwest;" parent="147" vertex="1">
                    <mxGeometry y="160" width="600" height="38" as="geometry"/>
                </mxCell>
                <mxCell id="164" value="secondNameTeacher" style="shape=partialRectangle;html=1;whiteSpace=wrap;connectable=0;fillColor=none;top=0;left=0;bottom=0;right=0;overflow=hidden;pointerEvents=1;" parent="163" vertex="1">
                    <mxGeometry width="120" height="38" as="geometry">
                        <mxRectangle width="120" height="38" as="alternateBounds"/>
                    </mxGeometry>
                </mxCell>
                <mxCell id="165" value="string" style="shape=partialRectangle;html=1;whiteSpace=wrap;connectable=0;fillColor=none;top=0;left=0;bottom=0;right=0;overflow=hidden;pointerEvents=1;" parent="163" vertex="1">
                    <mxGeometry x="120" width="80" height="38" as="geometry">
                        <mxRectangle width="80" height="38" as="alternateBounds"/>
                    </mxGeometry>
                </mxCell>
                <mxCell id="166" value="64" style="shape=partialRectangle;html=1;whiteSpace=wrap;connectable=0;fillColor=none;top=0;left=0;bottom=0;right=0;overflow=hidden;pointerEvents=1;" parent="163" vertex="1">
                    <mxGeometry x="200" width="80" height="38" as="geometry">
                        <mxRectangle width="80" height="38" as="alternateBounds"/>
                    </mxGeometry>
                </mxCell>
                <mxCell id="167" value="Имя учителя" style="shape=partialRectangle;html=1;whiteSpace=wrap;connectable=0;fillColor=none;top=0;left=0;bottom=0;right=0;overflow=hidden;pointerEvents=1;" parent="163" vertex="1">
                    <mxGeometry x="280" width="320" height="38" as="geometry">
                        <mxRectangle width="320" height="38" as="alternateBounds"/>
                    </mxGeometry>
                </mxCell>
                <mxCell id="168" value="" style="shape=partialRectangle;html=1;whiteSpace=wrap;collapsible=0;dropTarget=0;pointerEvents=0;fillColor=none;top=0;left=0;bottom=0;right=0;points=[[0,0.5],[1,0.5]];portConstraint=eastwest;" parent="147" vertex="1">
                    <mxGeometry y="198" width="600" height="39" as="geometry"/>
                </mxCell>
                <mxCell id="169" value="patronymicTeacher" style="shape=partialRectangle;html=1;whiteSpace=wrap;connectable=0;fillColor=none;top=0;left=0;bottom=0;right=0;overflow=hidden;pointerEvents=1;" parent="168" vertex="1">
                    <mxGeometry width="120" height="39" as="geometry">
                        <mxRectangle width="120" height="39" as="alternateBounds"/>
                    </mxGeometry>
                </mxCell>
                <mxCell id="170" value="string" style="shape=partialRectangle;html=1;whiteSpace=wrap;connectable=0;fillColor=none;top=0;left=0;bottom=0;right=0;overflow=hidden;pointerEvents=1;" parent="168" vertex="1">
                    <mxGeometry x="120" width="80" height="39" as="geometry">
                        <mxRectangle width="80" height="39" as="alternateBounds"/>
                    </mxGeometry>
                </mxCell>
                <mxCell id="171" value="64" style="shape=partialRectangle;html=1;whiteSpace=wrap;connectable=0;fillColor=none;top=0;left=0;bottom=0;right=0;overflow=hidden;pointerEvents=1;" parent="168" vertex="1">
                    <mxGeometry x="200" width="80" height="39" as="geometry">
                        <mxRectangle width="80" height="39" as="alternateBounds"/>
                    </mxGeometry>
                </mxCell>
                <mxCell id="172" value="Отчество ученика" style="shape=partialRectangle;html=1;whiteSpace=wrap;connectable=0;fillColor=none;top=0;left=0;bottom=0;right=0;overflow=hidden;pointerEvents=1;" parent="168" vertex="1">
                    <mxGeometry x="280" width="320" height="39" as="geometry">
                        <mxRectangle width="320" height="39" as="alternateBounds"/>
                    </mxGeometry>
                </mxCell>
                <mxCell id="173" value="" style="shape=partialRectangle;html=1;whiteSpace=wrap;collapsible=0;dropTarget=0;pointerEvents=0;fillColor=none;top=0;left=0;bottom=0;right=0;points=[[0,0.5],[1,0.5]];portConstraint=eastwest;" parent="147" vertex="1">
                    <mxGeometry y="237" width="600" height="43" as="geometry"/>
                </mxCell>
                <mxCell id="174" value="dateBirth" style="shape=partialRectangle;html=1;whiteSpace=wrap;connectable=0;fillColor=none;top=0;left=0;bottom=0;right=0;overflow=hidden;pointerEvents=1;" parent="173" vertex="1">
                    <mxGeometry width="120" height="43" as="geometry">
                        <mxRectangle width="120" height="43" as="alternateBounds"/>
                    </mxGeometry>
                </mxCell>
                <mxCell id="175" value="date" style="shape=partialRectangle;html=1;whiteSpace=wrap;connectable=0;fillColor=none;top=0;left=0;bottom=0;right=0;overflow=hidden;pointerEvents=1;" parent="173" vertex="1">
                    <mxGeometry x="120" width="80" height="43" as="geometry">
                        <mxRectangle width="80" height="43" as="alternateBounds"/>
                    </mxGeometry>
                </mxCell>
                <mxCell id="176" value="8" style="shape=partialRectangle;html=1;whiteSpace=wrap;connectable=0;fillColor=none;top=0;left=0;bottom=0;right=0;overflow=hidden;pointerEvents=1;" parent="173" vertex="1">
                    <mxGeometry x="200" width="80" height="43" as="geometry">
                        <mxRectangle width="80" height="43" as="alternateBounds"/>
                    </mxGeometry>
                </mxCell>
                <mxCell id="177" value="Дата рождения ученика" style="shape=partialRectangle;html=1;whiteSpace=wrap;connectable=0;fillColor=none;top=0;left=0;bottom=0;right=0;overflow=hidden;pointerEvents=1;" parent="173" vertex="1">
                    <mxGeometry x="280" width="320" height="43" as="geometry">
                        <mxRectangle width="320" height="43" as="alternateBounds"/>
                    </mxGeometry>
                </mxCell>
                <mxCell id="178" value="" style="shape=partialRectangle;html=1;whiteSpace=wrap;collapsible=0;dropTarget=0;pointerEvents=0;fillColor=none;top=0;left=0;bottom=0;right=0;points=[[0,0.5],[1,0.5]];portConstraint=eastwest;" parent="147" vertex="1">
                    <mxGeometry y="280" width="600" height="39" as="geometry"/>
                </mxCell>
                <mxCell id="179" value="class_id" style="shape=partialRectangle;html=1;whiteSpace=wrap;connectable=0;fillColor=none;top=0;left=0;bottom=0;right=0;overflow=hidden;pointerEvents=1;" parent="178" vertex="1">
                    <mxGeometry width="120" height="39" as="geometry">
                        <mxRectangle width="120" height="39" as="alternateBounds"/>
                    </mxGeometry>
                </mxCell>
                <mxCell id="180" value="int" style="shape=partialRectangle;html=1;whiteSpace=wrap;connectable=0;fillColor=none;top=0;left=0;bottom=0;right=0;overflow=hidden;pointerEvents=1;" parent="178" vertex="1">
                    <mxGeometry x="120" width="80" height="39" as="geometry">
                        <mxRectangle width="80" height="39" as="alternateBounds"/>
                    </mxGeometry>
                </mxCell>
                <mxCell id="181" value="8" style="shape=partialRectangle;html=1;whiteSpace=wrap;connectable=0;fillColor=none;top=0;left=0;bottom=0;right=0;overflow=hidden;pointerEvents=1;" parent="178" vertex="1">
                    <mxGeometry x="200" width="80" height="39" as="geometry">
                        <mxRectangle width="80" height="39" as="alternateBounds"/>
                    </mxGeometry>
                </mxCell>
                <mxCell id="182" value="Школьный класс учителя" style="shape=partialRectangle;html=1;whiteSpace=wrap;connectable=0;fillColor=none;top=0;left=0;bottom=0;right=0;overflow=hidden;pointerEvents=1;" parent="178" vertex="1">
                    <mxGeometry x="280" width="320" height="39" as="geometry">
                        <mxRectangle width="320" height="39" as="alternateBounds"/>
                    </mxGeometry>
                </mxCell>
                <mxCell id="183" style="edgeStyle=none;html=1;exitX=0;exitY=0.5;exitDx=0;exitDy=0;entryX=0;entryY=0.5;entryDx=0;entryDy=0;fontFamily=Helvetica;fontSize=12;fontColor=default;startSize=30;" parent="1" source="106" target="117" edge="1">
                    <mxGeometry relative="1" as="geometry">
                        <Array as="points">
                            <mxPoint x="103" y="337"/>
                            <mxPoint x="103" y="498"/>
                        </Array>
                    </mxGeometry>
                </mxCell>
                <mxCell id="184" style="edgeStyle=none;html=1;exitX=0;exitY=0.5;exitDx=0;exitDy=0;entryX=0;entryY=0.5;entryDx=0;entryDy=0;fontFamily=Helvetica;fontSize=12;fontColor=default;startSize=30;" parent="1" source="178" target="117" edge="1">
                    <mxGeometry relative="1" as="geometry">
                        <Array as="points">
                            <mxPoint x="103" y="1019"/>
                            <mxPoint x="103" y="498"/>
                        </Array>
                    </mxGeometry>
                </mxCell>
                <mxCell id="185" style="edgeStyle=none;html=1;exitX=0;exitY=0.5;exitDx=0;exitDy=0;entryX=0;entryY=0.5;entryDx=0;entryDy=0;fontFamily=Helvetica;fontSize=12;fontColor=default;startSize=30;" parent="1" source="132" target="153" edge="1">
                    <mxGeometry relative="1" as="geometry">
                        <Array as="points">
                            <mxPoint x="80" y="618"/>
                            <mxPoint x="80" y="818"/>
                        </Array>
                    </mxGeometry>
                </mxCell>
                <mxCell id="186" value="Cabinets" style="shape=table;startSize=40;container=1;collapsible=0;childLayout=tableLayout;fontStyle=1;align=center;pointerEvents=1;column=4" parent="1" vertex="1">
                    <mxGeometry x="123" y="1080" width="600" height="277" as="geometry"/>
                </mxCell>
                <mxCell id="187" value="" style="shape=partialRectangle;html=1;whiteSpace=wrap;collapsible=0;dropTarget=0;pointerEvents=0;fillColor=none;top=0;left=0;bottom=0;right=0;points=[[0,0.5],[1,0.5]];portConstraint=eastwest;" parent="186" vertex="1">
                    <mxGeometry y="40" width="600" height="39" as="geometry"/>
                </mxCell>
                <mxCell id="188" value="Field" style="shape=partialRectangle;html=1;whiteSpace=wrap;connectable=0;fillColor=none;top=0;left=0;bottom=0;right=0;overflow=hidden;pointerEvents=1;" parent="187" vertex="1">
                    <mxGeometry width="120" height="39" as="geometry">
                        <mxRectangle width="120" height="39" as="alternateBounds"/>
                    </mxGeometry>
                </mxCell>
                <mxCell id="189" value="Type" style="shape=partialRectangle;html=1;whiteSpace=wrap;connectable=0;fillColor=none;top=0;left=0;bottom=0;right=0;overflow=hidden;pointerEvents=1;" parent="187" vertex="1">
                    <mxGeometry x="120" width="80" height="39" as="geometry">
                        <mxRectangle width="80" height="39" as="alternateBounds"/>
                    </mxGeometry>
                </mxCell>
                <mxCell id="190" value="Length" style="shape=partialRectangle;html=1;whiteSpace=wrap;connectable=0;fillColor=none;top=0;left=0;bottom=0;right=0;overflow=hidden;pointerEvents=1;" parent="187" vertex="1">
                    <mxGeometry x="200" width="80" height="39" as="geometry">
                        <mxRectangle width="80" height="39" as="alternateBounds"/>
                    </mxGeometry>
                </mxCell>
                <mxCell id="191" value="Comment" style="shape=partialRectangle;html=1;whiteSpace=wrap;connectable=0;fillColor=none;top=0;left=0;bottom=0;right=0;overflow=hidden;pointerEvents=1;" parent="187" vertex="1">
                    <mxGeometry x="280" width="320" height="39" as="geometry">
                        <mxRectangle width="320" height="39" as="alternateBounds"/>
                    </mxGeometry>
                </mxCell>
                <mxCell id="192" value="" style="shape=partialRectangle;html=1;whiteSpace=wrap;collapsible=0;dropTarget=0;pointerEvents=0;fillColor=none;top=0;left=0;bottom=0;right=0;points=[[0,0.5],[1,0.5]];portConstraint=eastwest;" parent="186" vertex="1">
                    <mxGeometry y="79" width="600" height="38" as="geometry"/>
                </mxCell>
                <mxCell id="193" value="cabinet_id" style="shape=partialRectangle;html=1;whiteSpace=wrap;connectable=0;fillColor=none;top=0;left=0;bottom=0;right=0;overflow=hidden;pointerEvents=1;" parent="192" vertex="1">
                    <mxGeometry width="120" height="38" as="geometry">
                        <mxRectangle width="120" height="38" as="alternateBounds"/>
                    </mxGeometry>
                </mxCell>
                <mxCell id="194" value="int" style="shape=partialRectangle;html=1;whiteSpace=wrap;connectable=0;fillColor=none;top=0;left=0;bottom=0;right=0;overflow=hidden;pointerEvents=1;" parent="192" vertex="1">
                    <mxGeometry x="120" width="80" height="38" as="geometry">
                        <mxRectangle width="80" height="38" as="alternateBounds"/>
                    </mxGeometry>
                </mxCell>
                <mxCell id="195" value="8" style="shape=partialRectangle;html=1;whiteSpace=wrap;connectable=0;fillColor=none;top=0;left=0;bottom=0;right=0;overflow=hidden;pointerEvents=1;" parent="192" vertex="1">
                    <mxGeometry x="200" width="80" height="38" as="geometry">
                        <mxRectangle width="80" height="38" as="alternateBounds"/>
                    </mxGeometry>
                </mxCell>
                <mxCell id="196" value="Уникальный идентификатор кабинета" style="shape=partialRectangle;html=1;whiteSpace=wrap;connectable=0;fillColor=none;top=0;left=0;bottom=0;right=0;overflow=hidden;pointerEvents=1;" parent="192" vertex="1">
                    <mxGeometry x="280" width="320" height="38" as="geometry">
                        <mxRectangle width="320" height="38" as="alternateBounds"/>
                    </mxGeometry>
                </mxCell>
                <mxCell id="197" value="" style="shape=partialRectangle;html=1;whiteSpace=wrap;collapsible=0;dropTarget=0;pointerEvents=0;fillColor=none;top=0;left=0;bottom=0;right=0;points=[[0,0.5],[1,0.5]];portConstraint=eastwest;" parent="186" vertex="1">
                    <mxGeometry y="117" width="600" height="39" as="geometry"/>
                </mxCell>
                <mxCell id="198" value="subject_id" style="shape=partialRectangle;html=1;whiteSpace=wrap;connectable=0;fillColor=none;top=0;left=0;bottom=0;right=0;overflow=hidden;pointerEvents=1;" parent="197" vertex="1">
                    <mxGeometry width="120" height="39" as="geometry">
                        <mxRectangle width="120" height="39" as="alternateBounds"/>
                    </mxGeometry>
                </mxCell>
                <mxCell id="199" value="int" style="shape=partialRectangle;html=1;whiteSpace=wrap;connectable=0;fillColor=none;top=0;left=0;bottom=0;right=0;overflow=hidden;pointerEvents=1;" parent="197" vertex="1">
                    <mxGeometry x="120" width="80" height="39" as="geometry">
                        <mxRectangle width="80" height="39" as="alternateBounds"/>
                    </mxGeometry>
                </mxCell>
                <mxCell id="200" value="8" style="shape=partialRectangle;html=1;whiteSpace=wrap;connectable=0;fillColor=none;top=0;left=0;bottom=0;right=0;overflow=hidden;pointerEvents=1;" parent="197" vertex="1">
                    <mxGeometry x="200" width="80" height="39" as="geometry">
                        <mxRectangle width="80" height="39" as="alternateBounds"/>
                    </mxGeometry>
                </mxCell>
                <mxCell id="201" value="Уникальный идентификатор предмета" style="shape=partialRectangle;html=1;whiteSpace=wrap;connectable=0;fillColor=none;top=0;left=0;bottom=0;right=0;overflow=hidden;pointerEvents=1;" parent="197" vertex="1">
                    <mxGeometry x="280" width="320" height="39" as="geometry">
                        <mxRectangle width="320" height="39" as="alternateBounds"/>
                    </mxGeometry>
                </mxCell>
                <mxCell id="202" value="" style="shape=partialRectangle;html=1;whiteSpace=wrap;collapsible=0;dropTarget=0;pointerEvents=0;fillColor=none;top=0;left=0;bottom=0;right=0;points=[[0,0.5],[1,0.5]];portConstraint=eastwest;" parent="186" vertex="1">
                    <mxGeometry y="156" width="600" height="44" as="geometry"/>
                </mxCell>
                <mxCell id="203" value="rowsCount" style="shape=partialRectangle;html=1;whiteSpace=wrap;connectable=0;fillColor=none;top=0;left=0;bottom=0;right=0;overflow=hidden;pointerEvents=1;" parent="202" vertex="1">
                    <mxGeometry width="120" height="44" as="geometry">
                        <mxRectangle width="120" height="44" as="alternateBounds"/>
                    </mxGeometry>
                </mxCell>
                <mxCell id="204" value="int" style="shape=partialRectangle;html=1;whiteSpace=wrap;connectable=0;fillColor=none;top=0;left=0;bottom=0;right=0;overflow=hidden;pointerEvents=1;" parent="202" vertex="1">
                    <mxGeometry x="120" width="80" height="44" as="geometry">
                        <mxRectangle width="80" height="44" as="alternateBounds"/>
                    </mxGeometry>
                </mxCell>
                <mxCell id="205" value="8" style="shape=partialRectangle;html=1;whiteSpace=wrap;connectable=0;fillColor=none;top=0;left=0;bottom=0;right=0;overflow=hidden;pointerEvents=1;" parent="202" vertex="1">
                    <mxGeometry x="200" width="80" height="44" as="geometry">
                        <mxRectangle width="80" height="44" as="alternateBounds"/>
                    </mxGeometry>
                </mxCell>
                <mxCell id="206" value="Кол-во рядов в кабинете" style="shape=partialRectangle;html=1;whiteSpace=wrap;connectable=0;fillColor=none;top=0;left=0;bottom=0;right=0;overflow=hidden;pointerEvents=1;" parent="202" vertex="1">
                    <mxGeometry x="280" width="320" height="44" as="geometry">
                        <mxRectangle width="320" height="44" as="alternateBounds"/>
                    </mxGeometry>
                </mxCell>
                <mxCell id="207" value="" style="shape=partialRectangle;html=1;whiteSpace=wrap;collapsible=0;dropTarget=0;pointerEvents=0;fillColor=none;top=0;left=0;bottom=0;right=0;points=[[0,0.5],[1,0.5]];portConstraint=eastwest;" parent="186" vertex="1">
                    <mxGeometry y="200" width="600" height="39" as="geometry"/>
                </mxCell>
                <mxCell id="208" value="deskCount" style="shape=partialRectangle;html=1;whiteSpace=wrap;connectable=0;fillColor=none;top=0;left=0;bottom=0;right=0;overflow=hidden;pointerEvents=1;" parent="207" vertex="1">
                    <mxGeometry width="120" height="39" as="geometry">
                        <mxRectangle width="120" height="39" as="alternateBounds"/>
                    </mxGeometry>
                </mxCell>
                <mxCell id="209" value="int" style="shape=partialRectangle;html=1;whiteSpace=wrap;connectable=0;fillColor=none;top=0;left=0;bottom=0;right=0;overflow=hidden;pointerEvents=1;" parent="207" vertex="1">
                    <mxGeometry x="120" width="80" height="39" as="geometry">
                        <mxRectangle width="80" height="39" as="alternateBounds"/>
                    </mxGeometry>
                </mxCell>
                <mxCell id="210" value="16" style="shape=partialRectangle;html=1;whiteSpace=wrap;connectable=0;fillColor=none;top=0;left=0;bottom=0;right=0;overflow=hidden;pointerEvents=1;" parent="207" vertex="1">
                    <mxGeometry x="200" width="80" height="39" as="geometry">
                        <mxRectangle width="80" height="39" as="alternateBounds"/>
                    </mxGeometry>
                </mxCell>
                <mxCell id="211" value="Кол-во парт в ряду кабинета" style="shape=partialRectangle;html=1;whiteSpace=wrap;connectable=0;fillColor=none;top=0;left=0;bottom=0;right=0;overflow=hidden;pointerEvents=1;" parent="207" vertex="1">
                    <mxGeometry x="280" width="320" height="39" as="geometry">
                        <mxRectangle width="320" height="39" as="alternateBounds"/>
                    </mxGeometry>
                </mxCell>
                <mxCell id="212" value="" style="shape=partialRectangle;html=1;whiteSpace=wrap;collapsible=0;dropTarget=0;pointerEvents=0;fillColor=none;top=0;left=0;bottom=0;right=0;points=[[0,0.5],[1,0.5]];portConstraint=eastwest;" parent="186" vertex="1">
                    <mxGeometry y="239" width="600" height="38" as="geometry"/>
                </mxCell>
                <mxCell id="213" value="flat" style="shape=partialRectangle;html=1;whiteSpace=wrap;connectable=0;fillColor=none;top=0;left=0;bottom=0;right=0;overflow=hidden;pointerEvents=1;" parent="212" vertex="1">
                    <mxGeometry width="120" height="38" as="geometry">
                        <mxRectangle width="120" height="38" as="alternateBounds"/>
                    </mxGeometry>
                </mxCell>
                <mxCell id="214" value="int" style="shape=partialRectangle;html=1;whiteSpace=wrap;connectable=0;fillColor=none;top=0;left=0;bottom=0;right=0;overflow=hidden;pointerEvents=1;" parent="212" vertex="1">
                    <mxGeometry x="120" width="80" height="38" as="geometry">
                        <mxRectangle width="80" height="38" as="alternateBounds"/>
                    </mxGeometry>
                </mxCell>
                <mxCell id="215" value="16" style="shape=partialRectangle;html=1;whiteSpace=wrap;connectable=0;fillColor=none;top=0;left=0;bottom=0;right=0;overflow=hidden;pointerEvents=1;" parent="212" vertex="1">
                    <mxGeometry x="200" width="80" height="38" as="geometry">
                        <mxRectangle width="80" height="38" as="alternateBounds"/>
                    </mxGeometry>
                </mxCell>
                <mxCell id="216" value="Этаж кабинета" style="shape=partialRectangle;html=1;whiteSpace=wrap;connectable=0;fillColor=none;top=0;left=0;bottom=0;right=0;overflow=hidden;pointerEvents=1;" parent="212" vertex="1">
                    <mxGeometry x="280" width="320" height="38" as="geometry">
                        <mxRectangle width="320" height="38" as="alternateBounds"/>
                    </mxGeometry>
                </mxCell>
                <mxCell id="223" value="Schedule" style="shape=table;startSize=40;container=1;collapsible=0;childLayout=tableLayout;fontStyle=1;align=center;pointerEvents=1;column=4" parent="1" vertex="1">
                    <mxGeometry x="122" y="-280" width="600" height="277" as="geometry"/>
                </mxCell>
                <mxCell id="224" value="" style="shape=partialRectangle;html=1;whiteSpace=wrap;collapsible=0;dropTarget=0;pointerEvents=0;fillColor=none;top=0;left=0;bottom=0;right=0;points=[[0,0.5],[1,0.5]];portConstraint=eastwest;" parent="223" vertex="1">
                    <mxGeometry y="40" width="600" height="39" as="geometry"/>
                </mxCell>
                <mxCell id="225" value="Field" style="shape=partialRectangle;html=1;whiteSpace=wrap;connectable=0;fillColor=none;top=0;left=0;bottom=0;right=0;overflow=hidden;pointerEvents=1;" parent="224" vertex="1">
                    <mxGeometry width="120" height="39" as="geometry">
                        <mxRectangle width="120" height="39" as="alternateBounds"/>
                    </mxGeometry>
                </mxCell>
                <mxCell id="226" value="Type" style="shape=partialRectangle;html=1;whiteSpace=wrap;connectable=0;fillColor=none;top=0;left=0;bottom=0;right=0;overflow=hidden;pointerEvents=1;" parent="224" vertex="1">
                    <mxGeometry x="120" width="80" height="39" as="geometry">
                        <mxRectangle width="80" height="39" as="alternateBounds"/>
                    </mxGeometry>
                </mxCell>
                <mxCell id="227" value="Length" style="shape=partialRectangle;html=1;whiteSpace=wrap;connectable=0;fillColor=none;top=0;left=0;bottom=0;right=0;overflow=hidden;pointerEvents=1;" parent="224" vertex="1">
                    <mxGeometry x="200" width="80" height="39" as="geometry">
                        <mxRectangle width="80" height="39" as="alternateBounds"/>
                    </mxGeometry>
                </mxCell>
                <mxCell id="228" value="Comment" style="shape=partialRectangle;html=1;whiteSpace=wrap;connectable=0;fillColor=none;top=0;left=0;bottom=0;right=0;overflow=hidden;pointerEvents=1;" parent="224" vertex="1">
                    <mxGeometry x="280" width="320" height="39" as="geometry">
                        <mxRectangle width="320" height="39" as="alternateBounds"/>
                    </mxGeometry>
                </mxCell>
                <mxCell id="229" value="" style="shape=partialRectangle;html=1;whiteSpace=wrap;collapsible=0;dropTarget=0;pointerEvents=0;fillColor=none;top=0;left=0;bottom=0;right=0;points=[[0,0.5],[1,0.5]];portConstraint=eastwest;" parent="223" vertex="1">
                    <mxGeometry y="79" width="600" height="38" as="geometry"/>
                </mxCell>
                <mxCell id="230" value="schedule_id" style="shape=partialRectangle;html=1;whiteSpace=wrap;connectable=0;fillColor=none;top=0;left=0;bottom=0;right=0;overflow=hidden;pointerEvents=1;" parent="229" vertex="1">
                    <mxGeometry width="120" height="38" as="geometry">
                        <mxRectangle width="120" height="38" as="alternateBounds"/>
                    </mxGeometry>
                </mxCell>
                <mxCell id="231" value="int" style="shape=partialRectangle;html=1;whiteSpace=wrap;connectable=0;fillColor=none;top=0;left=0;bottom=0;right=0;overflow=hidden;pointerEvents=1;" parent="229" vertex="1">
                    <mxGeometry x="120" width="80" height="38" as="geometry">
                        <mxRectangle width="80" height="38" as="alternateBounds"/>
                    </mxGeometry>
                </mxCell>
                <mxCell id="232" value="8" style="shape=partialRectangle;html=1;whiteSpace=wrap;connectable=0;fillColor=none;top=0;left=0;bottom=0;right=0;overflow=hidden;pointerEvents=1;" parent="229" vertex="1">
                    <mxGeometry x="200" width="80" height="38" as="geometry">
                        <mxRectangle width="80" height="38" as="alternateBounds"/>
                    </mxGeometry>
                </mxCell>
                <mxCell id="233" value="Уникальный идентификатор номера урока" style="shape=partialRectangle;html=1;whiteSpace=wrap;connectable=0;fillColor=none;top=0;left=0;bottom=0;right=0;overflow=hidden;pointerEvents=1;" parent="229" vertex="1">
                    <mxGeometry x="280" width="320" height="38" as="geometry">
                        <mxRectangle width="320" height="38" as="alternateBounds"/>
                    </mxGeometry>
                </mxCell>
                <mxCell id="234" value="" style="shape=partialRectangle;html=1;whiteSpace=wrap;collapsible=0;dropTarget=0;pointerEvents=0;fillColor=none;top=0;left=0;bottom=0;right=0;points=[[0,0.5],[1,0.5]];portConstraint=eastwest;" parent="223" vertex="1">
                    <mxGeometry y="117" width="600" height="39" as="geometry"/>
                </mxCell>
                <mxCell id="235" value="shift" style="shape=partialRectangle;html=1;whiteSpace=wrap;connectable=0;fillColor=none;top=0;left=0;bottom=0;right=0;overflow=hidden;pointerEvents=1;" parent="234" vertex="1">
                    <mxGeometry width="120" height="39" as="geometry">
                        <mxRectangle width="120" height="39" as="alternateBounds"/>
                    </mxGeometry>
                </mxCell>
                <mxCell id="236" value="int" style="shape=partialRectangle;html=1;whiteSpace=wrap;connectable=0;fillColor=none;top=0;left=0;bottom=0;right=0;overflow=hidden;pointerEvents=1;" parent="234" vertex="1">
                    <mxGeometry x="120" width="80" height="39" as="geometry">
                        <mxRectangle width="80" height="39" as="alternateBounds"/>
                    </mxGeometry>
                </mxCell>
                <mxCell id="237" value="4" style="shape=partialRectangle;html=1;whiteSpace=wrap;connectable=0;fillColor=none;top=0;left=0;bottom=0;right=0;overflow=hidden;pointerEvents=1;" parent="234" vertex="1">
                    <mxGeometry x="200" width="80" height="39" as="geometry">
                        <mxRectangle width="80" height="39" as="alternateBounds"/>
                    </mxGeometry>
                </mxCell>
                <mxCell id="238" value="Cмена" style="shape=partialRectangle;html=1;whiteSpace=wrap;connectable=0;fillColor=none;top=0;left=0;bottom=0;right=0;overflow=hidden;pointerEvents=1;" parent="234" vertex="1">
                    <mxGeometry x="280" width="320" height="39" as="geometry">
                        <mxRectangle width="320" height="39" as="alternateBounds"/>
                    </mxGeometry>
                </mxCell>
                <mxCell id="239" value="" style="shape=partialRectangle;html=1;whiteSpace=wrap;collapsible=0;dropTarget=0;pointerEvents=0;fillColor=none;top=0;left=0;bottom=0;right=0;points=[[0,0.5],[1,0.5]];portConstraint=eastwest;" parent="223" vertex="1">
                    <mxGeometry y="156" width="600" height="44" as="geometry"/>
                </mxCell>
                <mxCell id="240" value="number_lesson" style="shape=partialRectangle;html=1;whiteSpace=wrap;connectable=0;fillColor=none;top=0;left=0;bottom=0;right=0;overflow=hidden;pointerEvents=1;" parent="239" vertex="1">
                    <mxGeometry width="120" height="44" as="geometry">
                        <mxRectangle width="120" height="44" as="alternateBounds"/>
                    </mxGeometry>
                </mxCell>
                <mxCell id="241" value="int" style="shape=partialRectangle;html=1;whiteSpace=wrap;connectable=0;fillColor=none;top=0;left=0;bottom=0;right=0;overflow=hidden;pointerEvents=1;" parent="239" vertex="1">
                    <mxGeometry x="120" width="80" height="44" as="geometry">
                        <mxRectangle width="80" height="44" as="alternateBounds"/>
                    </mxGeometry>
                </mxCell>
                <mxCell id="242" value="8" style="shape=partialRectangle;html=1;whiteSpace=wrap;connectable=0;fillColor=none;top=0;left=0;bottom=0;right=0;overflow=hidden;pointerEvents=1;" parent="239" vertex="1">
                    <mxGeometry x="200" width="80" height="44" as="geometry">
                        <mxRectangle width="80" height="44" as="alternateBounds"/>
                    </mxGeometry>
                </mxCell>
                <mxCell id="243" value="Номер урока в смене" style="shape=partialRectangle;html=1;whiteSpace=wrap;connectable=0;fillColor=none;top=0;left=0;bottom=0;right=0;overflow=hidden;pointerEvents=1;" parent="239" vertex="1">
                    <mxGeometry x="280" width="320" height="44" as="geometry">
                        <mxRectangle width="320" height="44" as="alternateBounds"/>
                    </mxGeometry>
                </mxCell>
                <mxCell id="244" value="" style="shape=partialRectangle;html=1;whiteSpace=wrap;collapsible=0;dropTarget=0;pointerEvents=0;fillColor=none;top=0;left=0;bottom=0;right=0;points=[[0,0.5],[1,0.5]];portConstraint=eastwest;" parent="223" vertex="1">
                    <mxGeometry y="200" width="600" height="39" as="geometry"/>
                </mxCell>
                <mxCell id="245" value="timeStart" style="shape=partialRectangle;html=1;whiteSpace=wrap;connectable=0;fillColor=none;top=0;left=0;bottom=0;right=0;overflow=hidden;pointerEvents=1;" parent="244" vertex="1">
                    <mxGeometry width="120" height="39" as="geometry">
                        <mxRectangle width="120" height="39" as="alternateBounds"/>
                    </mxGeometry>
                </mxCell>
                <mxCell id="246" value="timeStamp" style="shape=partialRectangle;html=1;whiteSpace=wrap;connectable=0;fillColor=none;top=0;left=0;bottom=0;right=0;overflow=hidden;pointerEvents=1;" parent="244" vertex="1">
                    <mxGeometry x="120" width="80" height="39" as="geometry">
                        <mxRectangle width="80" height="39" as="alternateBounds"/>
                    </mxGeometry>
                </mxCell>
                <mxCell id="247" value="4" style="shape=partialRectangle;html=1;whiteSpace=wrap;connectable=0;fillColor=none;top=0;left=0;bottom=0;right=0;overflow=hidden;pointerEvents=1;" parent="244" vertex="1">
                    <mxGeometry x="200" width="80" height="39" as="geometry">
                        <mxRectangle width="80" height="39" as="alternateBounds"/>
                    </mxGeometry>
                </mxCell>
                <mxCell id="248" value="Время начала" style="shape=partialRectangle;html=1;whiteSpace=wrap;connectable=0;fillColor=none;top=0;left=0;bottom=0;right=0;overflow=hidden;pointerEvents=1;" parent="244" vertex="1">
                    <mxGeometry x="280" width="320" height="39" as="geometry">
                        <mxRectangle width="320" height="39" as="alternateBounds"/>
                    </mxGeometry>
                </mxCell>
                <mxCell id="249" value="" style="shape=partialRectangle;html=1;whiteSpace=wrap;collapsible=0;dropTarget=0;pointerEvents=0;fillColor=none;top=0;left=0;bottom=0;right=0;points=[[0,0.5],[1,0.5]];portConstraint=eastwest;" parent="223" vertex="1">
                    <mxGeometry y="239" width="600" height="38" as="geometry"/>
                </mxCell>
                <mxCell id="250" value="timeEnd" style="shape=partialRectangle;html=1;whiteSpace=wrap;connectable=0;fillColor=none;top=0;left=0;bottom=0;right=0;overflow=hidden;pointerEvents=1;" parent="249" vertex="1">
                    <mxGeometry width="120" height="38" as="geometry">
                        <mxRectangle width="120" height="38" as="alternateBounds"/>
                    </mxGeometry>
                </mxCell>
                <mxCell id="251" value="timeStamp" style="shape=partialRectangle;html=1;whiteSpace=wrap;connectable=0;fillColor=none;top=0;left=0;bottom=0;right=0;overflow=hidden;pointerEvents=1;" parent="249" vertex="1">
                    <mxGeometry x="120" width="80" height="38" as="geometry">
                        <mxRectangle width="80" height="38" as="alternateBounds"/>
                    </mxGeometry>
                </mxCell>
                <mxCell id="252" value="4" style="shape=partialRectangle;html=1;whiteSpace=wrap;connectable=0;fillColor=none;top=0;left=0;bottom=0;right=0;overflow=hidden;pointerEvents=1;" parent="249" vertex="1">
                    <mxGeometry x="200" width="80" height="38" as="geometry">
                        <mxRectangle width="80" height="38" as="alternateBounds"/>
                    </mxGeometry>
                </mxCell>
                <mxCell id="253" value="Время окончания" style="shape=partialRectangle;html=1;whiteSpace=wrap;connectable=0;fillColor=none;top=0;left=0;bottom=0;right=0;overflow=hidden;pointerEvents=1;" parent="249" vertex="1">
                    <mxGeometry x="280" width="320" height="38" as="geometry">
                        <mxRectangle width="320" height="38" as="alternateBounds"/>
                    </mxGeometry>
                </mxCell>
                <mxCell id="264" value="Daybook" style="shape=table;startSize=40;container=1;collapsible=0;childLayout=tableLayout;fontStyle=1;align=center;pointerEvents=1;column=4" parent="1" vertex="1">
                    <mxGeometry x="-1320" y="359" width="600" height="356.99999999999955" as="geometry"/>
                </mxCell>
                <mxCell id="265" value="" style="shape=partialRectangle;html=1;whiteSpace=wrap;collapsible=0;dropTarget=0;pointerEvents=0;fillColor=none;top=0;left=0;bottom=0;right=0;points=[[0,0.5],[1,0.5]];portConstraint=eastwest;" parent="264" vertex="1">
                    <mxGeometry y="40" width="600" height="39" as="geometry"/>
                </mxCell>
                <mxCell id="266" value="Field" style="shape=partialRectangle;html=1;whiteSpace=wrap;connectable=0;fillColor=none;top=0;left=0;bottom=0;right=0;overflow=hidden;pointerEvents=1;" parent="265" vertex="1">
                    <mxGeometry width="120" height="39" as="geometry">
                        <mxRectangle width="120" height="39" as="alternateBounds"/>
                    </mxGeometry>
                </mxCell>
                <mxCell id="267" value="Type" style="shape=partialRectangle;html=1;whiteSpace=wrap;connectable=0;fillColor=none;top=0;left=0;bottom=0;right=0;overflow=hidden;pointerEvents=1;" parent="265" vertex="1">
                    <mxGeometry x="120" width="80" height="39" as="geometry">
                        <mxRectangle width="80" height="39" as="alternateBounds"/>
                    </mxGeometry>
                </mxCell>
                <mxCell id="268" value="Length" style="shape=partialRectangle;html=1;whiteSpace=wrap;connectable=0;fillColor=none;top=0;left=0;bottom=0;right=0;overflow=hidden;pointerEvents=1;" parent="265" vertex="1">
                    <mxGeometry x="200" width="80" height="39" as="geometry">
                        <mxRectangle width="80" height="39" as="alternateBounds"/>
                    </mxGeometry>
                </mxCell>
                <mxCell id="269" value="Comment" style="shape=partialRectangle;html=1;whiteSpace=wrap;connectable=0;fillColor=none;top=0;left=0;bottom=0;right=0;overflow=hidden;pointerEvents=1;" parent="265" vertex="1">
                    <mxGeometry x="280" width="320" height="39" as="geometry">
                        <mxRectangle width="320" height="39" as="alternateBounds"/>
                    </mxGeometry>
                </mxCell>
                <mxCell id="270" value="" style="shape=partialRectangle;html=1;whiteSpace=wrap;collapsible=0;dropTarget=0;pointerEvents=0;fillColor=none;top=0;left=0;bottom=0;right=0;points=[[0,0.5],[1,0.5]];portConstraint=eastwest;" parent="264" vertex="1">
                    <mxGeometry y="79" width="600" height="38" as="geometry"/>
                </mxCell>
                <mxCell id="271" value="record_id" style="shape=partialRectangle;html=1;whiteSpace=wrap;connectable=0;fillColor=none;top=0;left=0;bottom=0;right=0;overflow=hidden;pointerEvents=1;" parent="270" vertex="1">
                    <mxGeometry width="120" height="38" as="geometry">
                        <mxRectangle width="120" height="38" as="alternateBounds"/>
                    </mxGeometry>
                </mxCell>
                <mxCell id="272" value="int" style="shape=partialRectangle;html=1;whiteSpace=wrap;connectable=0;fillColor=none;top=0;left=0;bottom=0;right=0;overflow=hidden;pointerEvents=1;" parent="270" vertex="1">
                    <mxGeometry x="120" width="80" height="38" as="geometry">
                        <mxRectangle width="80" height="38" as="alternateBounds"/>
                    </mxGeometry>
                </mxCell>
                <mxCell id="273" value="16" style="shape=partialRectangle;html=1;whiteSpace=wrap;connectable=0;fillColor=none;top=0;left=0;bottom=0;right=0;overflow=hidden;pointerEvents=1;" parent="270" vertex="1">
                    <mxGeometry x="200" width="80" height="38" as="geometry">
                        <mxRectangle width="80" height="38" as="alternateBounds"/>
                    </mxGeometry>
                </mxCell>
                <mxCell id="274" value="Уникальный идентификатор записи в журнале" style="shape=partialRectangle;html=1;whiteSpace=wrap;connectable=0;fillColor=none;top=0;left=0;bottom=0;right=0;overflow=hidden;pointerEvents=1;" parent="270" vertex="1">
                    <mxGeometry x="280" width="320" height="38" as="geometry">
                        <mxRectangle width="320" height="38" as="alternateBounds"/>
                    </mxGeometry>
                </mxCell>
                <mxCell id="361" value="" style="shape=partialRectangle;html=1;whiteSpace=wrap;collapsible=0;dropTarget=0;pointerEvents=0;fillColor=none;top=0;left=0;bottom=0;right=0;points=[[0,0.5],[1,0.5]];portConstraint=eastwest;" vertex="1" parent="264">
                    <mxGeometry y="117" width="600" height="41" as="geometry"/>
                </mxCell>
                <mxCell id="362" value="date" style="shape=partialRectangle;html=1;whiteSpace=wrap;connectable=0;fillColor=none;top=0;left=0;bottom=0;right=0;overflow=hidden;pointerEvents=1;" vertex="1" parent="361">
                    <mxGeometry width="120" height="41" as="geometry">
                        <mxRectangle width="120" height="41" as="alternateBounds"/>
                    </mxGeometry>
                </mxCell>
                <mxCell id="363" value="date" style="shape=partialRectangle;html=1;whiteSpace=wrap;connectable=0;fillColor=none;top=0;left=0;bottom=0;right=0;overflow=hidden;pointerEvents=1;" vertex="1" parent="361">
                    <mxGeometry x="120" width="80" height="41" as="geometry">
                        <mxRectangle width="80" height="41" as="alternateBounds"/>
                    </mxGeometry>
                </mxCell>
                <mxCell id="364" value="8" style="shape=partialRectangle;html=1;whiteSpace=wrap;connectable=0;fillColor=none;top=0;left=0;bottom=0;right=0;overflow=hidden;pointerEvents=1;" vertex="1" parent="361">
                    <mxGeometry x="200" width="80" height="41" as="geometry">
                        <mxRectangle width="80" height="41" as="alternateBounds"/>
                    </mxGeometry>
                </mxCell>
                <mxCell id="365" value="Дата записи" style="shape=partialRectangle;html=1;whiteSpace=wrap;connectable=0;fillColor=none;top=0;left=0;bottom=0;right=0;overflow=hidden;pointerEvents=1;" vertex="1" parent="361">
                    <mxGeometry x="280" width="320" height="41" as="geometry">
                        <mxRectangle width="320" height="41" as="alternateBounds"/>
                    </mxGeometry>
                </mxCell>
                <mxCell id="275" value="" style="shape=partialRectangle;html=1;whiteSpace=wrap;collapsible=0;dropTarget=0;pointerEvents=0;fillColor=none;top=0;left=0;bottom=0;right=0;points=[[0,0.5],[1,0.5]];portConstraint=eastwest;" parent="264" vertex="1">
                    <mxGeometry y="158" width="600" height="39" as="geometry"/>
                </mxCell>
                <mxCell id="276" value="lesson_id" style="shape=partialRectangle;html=1;whiteSpace=wrap;connectable=0;fillColor=none;top=0;left=0;bottom=0;right=0;overflow=hidden;pointerEvents=1;" parent="275" vertex="1">
                    <mxGeometry width="120" height="39" as="geometry">
                        <mxRectangle width="120" height="39" as="alternateBounds"/>
                    </mxGeometry>
                </mxCell>
                <mxCell id="277" value="int" style="shape=partialRectangle;html=1;whiteSpace=wrap;connectable=0;fillColor=none;top=0;left=0;bottom=0;right=0;overflow=hidden;pointerEvents=1;" parent="275" vertex="1">
                    <mxGeometry x="120" width="80" height="39" as="geometry">
                        <mxRectangle width="80" height="39" as="alternateBounds"/>
                    </mxGeometry>
                </mxCell>
                <mxCell id="278" value="8" style="shape=partialRectangle;html=1;whiteSpace=wrap;connectable=0;fillColor=none;top=0;left=0;bottom=0;right=0;overflow=hidden;pointerEvents=1;" parent="275" vertex="1">
                    <mxGeometry x="200" width="80" height="39" as="geometry">
                        <mxRectangle width="80" height="39" as="alternateBounds"/>
                    </mxGeometry>
                </mxCell>
                <mxCell id="279" value="Уникальный идентификатор урока" style="shape=partialRectangle;html=1;whiteSpace=wrap;connectable=0;fillColor=none;top=0;left=0;bottom=0;right=0;overflow=hidden;pointerEvents=1;" parent="275" vertex="1">
                    <mxGeometry x="280" width="320" height="39" as="geometry">
                        <mxRectangle width="320" height="39" as="alternateBounds"/>
                    </mxGeometry>
                </mxCell>
                <mxCell id="280" value="" style="shape=partialRectangle;html=1;whiteSpace=wrap;collapsible=0;dropTarget=0;pointerEvents=0;fillColor=none;top=0;left=0;bottom=0;right=0;points=[[0,0.5],[1,0.5]];portConstraint=eastwest;" parent="264" vertex="1">
                    <mxGeometry y="197" width="600" height="44" as="geometry"/>
                </mxCell>
                <mxCell id="281" value="class_id" style="shape=partialRectangle;html=1;whiteSpace=wrap;connectable=0;fillColor=none;top=0;left=0;bottom=0;right=0;overflow=hidden;pointerEvents=1;" parent="280" vertex="1">
                    <mxGeometry width="120" height="44" as="geometry">
                        <mxRectangle width="120" height="44" as="alternateBounds"/>
                    </mxGeometry>
                </mxCell>
                <mxCell id="282" value="int" style="shape=partialRectangle;html=1;whiteSpace=wrap;connectable=0;fillColor=none;top=0;left=0;bottom=0;right=0;overflow=hidden;pointerEvents=1;" parent="280" vertex="1">
                    <mxGeometry x="120" width="80" height="44" as="geometry">
                        <mxRectangle width="80" height="44" as="alternateBounds"/>
                    </mxGeometry>
                </mxCell>
                <mxCell id="283" value="8" style="shape=partialRectangle;html=1;whiteSpace=wrap;connectable=0;fillColor=none;top=0;left=0;bottom=0;right=0;overflow=hidden;pointerEvents=1;" parent="280" vertex="1">
                    <mxGeometry x="200" width="80" height="44" as="geometry">
                        <mxRectangle width="80" height="44" as="alternateBounds"/>
                    </mxGeometry>
                </mxCell>
                <mxCell id="284" value="Уникальный идентификатор школьного класса" style="shape=partialRectangle;html=1;whiteSpace=wrap;connectable=0;fillColor=none;top=0;left=0;bottom=0;right=0;overflow=hidden;pointerEvents=1;" parent="280" vertex="1">
                    <mxGeometry x="280" width="320" height="44" as="geometry">
                        <mxRectangle width="320" height="44" as="alternateBounds"/>
                    </mxGeometry>
                </mxCell>
                <mxCell id="285" value="" style="shape=partialRectangle;html=1;whiteSpace=wrap;collapsible=0;dropTarget=0;pointerEvents=0;fillColor=none;top=0;left=0;bottom=0;right=0;points=[[0,0.5],[1,0.5]];portConstraint=eastwest;" parent="264" vertex="1">
                    <mxGeometry y="241" width="600" height="40" as="geometry"/>
                </mxCell>
                <mxCell id="286" value="cabinet_id" style="shape=partialRectangle;html=1;whiteSpace=wrap;connectable=0;fillColor=none;top=0;left=0;bottom=0;right=0;overflow=hidden;pointerEvents=1;" parent="285" vertex="1">
                    <mxGeometry width="120" height="40" as="geometry">
                        <mxRectangle width="120" height="40" as="alternateBounds"/>
                    </mxGeometry>
                </mxCell>
                <mxCell id="287" value="int" style="shape=partialRectangle;html=1;whiteSpace=wrap;connectable=0;fillColor=none;top=0;left=0;bottom=0;right=0;overflow=hidden;pointerEvents=1;" parent="285" vertex="1">
                    <mxGeometry x="120" width="80" height="40" as="geometry">
                        <mxRectangle width="80" height="40" as="alternateBounds"/>
                    </mxGeometry>
                </mxCell>
                <mxCell id="288" value="8" style="shape=partialRectangle;html=1;whiteSpace=wrap;connectable=0;fillColor=none;top=0;left=0;bottom=0;right=0;overflow=hidden;pointerEvents=1;" parent="285" vertex="1">
                    <mxGeometry x="200" width="80" height="40" as="geometry">
                        <mxRectangle width="80" height="40" as="alternateBounds"/>
                    </mxGeometry>
                </mxCell>
                <mxCell id="289" value="Уникальный идентификатор кабинета" style="shape=partialRectangle;html=1;whiteSpace=wrap;connectable=0;fillColor=none;top=0;left=0;bottom=0;right=0;overflow=hidden;pointerEvents=1;" parent="285" vertex="1">
                    <mxGeometry x="280" width="320" height="40" as="geometry">
                        <mxRectangle width="320" height="40" as="alternateBounds"/>
                    </mxGeometry>
                </mxCell>
                <mxCell id="290" value="" style="shape=partialRectangle;html=1;whiteSpace=wrap;collapsible=0;dropTarget=0;pointerEvents=0;fillColor=none;top=0;left=0;bottom=0;right=0;points=[[0,0.5],[1,0.5]];portConstraint=eastwest;" parent="264" vertex="1">
                    <mxGeometry y="281" width="600" height="38" as="geometry"/>
                </mxCell>
                <mxCell id="291" value="teacher_id" style="shape=partialRectangle;html=1;whiteSpace=wrap;connectable=0;fillColor=none;top=0;left=0;bottom=0;right=0;overflow=hidden;pointerEvents=1;" parent="290" vertex="1">
                    <mxGeometry width="120" height="38" as="geometry">
                        <mxRectangle width="120" height="38" as="alternateBounds"/>
                    </mxGeometry>
                </mxCell>
                <mxCell id="292" value="int" style="shape=partialRectangle;html=1;whiteSpace=wrap;connectable=0;fillColor=none;top=0;left=0;bottom=0;right=0;overflow=hidden;pointerEvents=1;" parent="290" vertex="1">
                    <mxGeometry x="120" width="80" height="38" as="geometry">
                        <mxRectangle width="80" height="38" as="alternateBounds"/>
                    </mxGeometry>
                </mxCell>
                <mxCell id="293" value="10" style="shape=partialRectangle;html=1;whiteSpace=wrap;connectable=0;fillColor=none;top=0;left=0;bottom=0;right=0;overflow=hidden;pointerEvents=1;" parent="290" vertex="1">
                    <mxGeometry x="200" width="80" height="38" as="geometry">
                        <mxRectangle width="80" height="38" as="alternateBounds"/>
                    </mxGeometry>
                </mxCell>
                <mxCell id="294" value="Уникальный идентификатор учителя" style="shape=partialRectangle;html=1;whiteSpace=wrap;connectable=0;fillColor=none;top=0;left=0;bottom=0;right=0;overflow=hidden;pointerEvents=1;" parent="290" vertex="1">
                    <mxGeometry x="280" width="320" height="38" as="geometry">
                        <mxRectangle width="320" height="38" as="alternateBounds"/>
                    </mxGeometry>
                </mxCell>
                <mxCell id="366" value="" style="shape=partialRectangle;html=1;whiteSpace=wrap;collapsible=0;dropTarget=0;pointerEvents=0;fillColor=none;top=0;left=0;bottom=0;right=0;points=[[0,0.5],[1,0.5]];portConstraint=eastwest;" vertex="1" parent="264">
                    <mxGeometry y="319" width="600" height="38" as="geometry"/>
                </mxCell>
                <mxCell id="367" value="teacher_id" style="shape=partialRectangle;html=1;whiteSpace=wrap;connectable=0;fillColor=none;top=0;left=0;bottom=0;right=0;overflow=hidden;pointerEvents=1;" vertex="1" parent="366">
                    <mxGeometry width="120" height="38" as="geometry">
                        <mxRectangle width="120" height="38" as="alternateBounds"/>
                    </mxGeometry>
                </mxCell>
                <mxCell id="368" value="int" style="shape=partialRectangle;html=1;whiteSpace=wrap;connectable=0;fillColor=none;top=0;left=0;bottom=0;right=0;overflow=hidden;pointerEvents=1;" vertex="1" parent="366">
                    <mxGeometry x="120" width="80" height="38" as="geometry">
                        <mxRectangle width="80" height="38" as="alternateBounds"/>
                    </mxGeometry>
                </mxCell>
                <mxCell id="369" value="10" style="shape=partialRectangle;html=1;whiteSpace=wrap;connectable=0;fillColor=none;top=0;left=0;bottom=0;right=0;overflow=hidden;pointerEvents=1;" vertex="1" parent="366">
                    <mxGeometry x="200" width="80" height="38" as="geometry">
                        <mxRectangle width="80" height="38" as="alternateBounds"/>
                    </mxGeometry>
                </mxCell>
                <mxCell id="370" value="Уникальный идентификатор учителя" style="shape=partialRectangle;html=1;whiteSpace=wrap;connectable=0;fillColor=none;top=0;left=0;bottom=0;right=0;overflow=hidden;pointerEvents=1;" vertex="1" parent="366">
                    <mxGeometry x="280" width="320" height="38" as="geometry">
                        <mxRectangle width="320" height="38" as="alternateBounds"/>
                    </mxGeometry>
                </mxCell>
                <mxCell id="296" style="edgeStyle=none;html=1;exitX=0;exitY=0.5;exitDx=0;exitDy=0;entryX=1;entryY=0.5;entryDx=0;entryDy=0;" parent="1" source="117" target="280" edge="1">
                    <mxGeometry relative="1" as="geometry">
                        <Array as="points">
                            <mxPoint x="-300" y="498"/>
                            <mxPoint x="-300" y="578"/>
                        </Array>
                    </mxGeometry>
                </mxCell>
                <mxCell id="297" style="edgeStyle=none;html=1;exitX=0;exitY=0.5;exitDx=0;exitDy=0;entryX=1;entryY=0.5;entryDx=0;entryDy=0;" parent="1" source="192" target="285" edge="1">
                    <mxGeometry relative="1" as="geometry">
                        <Array as="points">
                            <mxPoint x="-300" y="1178"/>
                            <mxPoint x="-300" y="620"/>
                        </Array>
                    </mxGeometry>
                </mxCell>
                <mxCell id="298" style="edgeStyle=none;html=1;exitX=0;exitY=0.5;exitDx=0;exitDy=0;entryX=1;entryY=0.5;entryDx=0;entryDy=0;" parent="1" source="153" target="290" edge="1">
                    <mxGeometry relative="1" as="geometry">
                        <mxPoint x="-690" y="640" as="targetPoint"/>
                        <Array as="points">
                            <mxPoint x="-380" y="818"/>
                            <mxPoint x="-380" y="658"/>
                        </Array>
                    </mxGeometry>
                </mxCell>
                <mxCell id="299" value="Lessons" style="shape=table;startSize=40;container=1;collapsible=0;childLayout=tableLayout;fontStyle=1;align=center;pointerEvents=1;column=4" parent="1" vertex="1">
                    <mxGeometry x="122" y="-720" width="600" height="391" as="geometry"/>
                </mxCell>
                <mxCell id="300" value="" style="shape=partialRectangle;html=1;whiteSpace=wrap;collapsible=0;dropTarget=0;pointerEvents=0;fillColor=none;top=0;left=0;bottom=0;right=0;points=[[0,0.5],[1,0.5]];portConstraint=eastwest;" parent="299" vertex="1">
                    <mxGeometry y="40" width="600" height="39" as="geometry"/>
                </mxCell>
                <mxCell id="301" value="Field" style="shape=partialRectangle;html=1;whiteSpace=wrap;connectable=0;fillColor=none;top=0;left=0;bottom=0;right=0;overflow=hidden;pointerEvents=1;" parent="300" vertex="1">
                    <mxGeometry width="120" height="39" as="geometry">
                        <mxRectangle width="120" height="39" as="alternateBounds"/>
                    </mxGeometry>
                </mxCell>
                <mxCell id="302" value="Type" style="shape=partialRectangle;html=1;whiteSpace=wrap;connectable=0;fillColor=none;top=0;left=0;bottom=0;right=0;overflow=hidden;pointerEvents=1;" parent="300" vertex="1">
                    <mxGeometry x="120" width="80" height="39" as="geometry">
                        <mxRectangle width="80" height="39" as="alternateBounds"/>
                    </mxGeometry>
                </mxCell>
                <mxCell id="303" value="Length" style="shape=partialRectangle;html=1;whiteSpace=wrap;connectable=0;fillColor=none;top=0;left=0;bottom=0;right=0;overflow=hidden;pointerEvents=1;" parent="300" vertex="1">
                    <mxGeometry x="200" width="80" height="39" as="geometry">
                        <mxRectangle width="80" height="39" as="alternateBounds"/>
                    </mxGeometry>
                </mxCell>
                <mxCell id="304" value="Comment" style="shape=partialRectangle;html=1;whiteSpace=wrap;connectable=0;fillColor=none;top=0;left=0;bottom=0;right=0;overflow=hidden;pointerEvents=1;" parent="300" vertex="1">
                    <mxGeometry x="280" width="320" height="39" as="geometry">
                        <mxRectangle width="320" height="39" as="alternateBounds"/>
                    </mxGeometry>
                </mxCell>
                <mxCell id="305" value="" style="shape=partialRectangle;html=1;whiteSpace=wrap;collapsible=0;dropTarget=0;pointerEvents=0;fillColor=none;top=0;left=0;bottom=0;right=0;points=[[0,0.5],[1,0.5]];portConstraint=eastwest;" parent="299" vertex="1">
                    <mxGeometry y="79" width="600" height="38" as="geometry"/>
                </mxCell>
                <mxCell id="306" value="lesson_id" style="shape=partialRectangle;html=1;whiteSpace=wrap;connectable=0;fillColor=none;top=0;left=0;bottom=0;right=0;overflow=hidden;pointerEvents=1;" parent="305" vertex="1">
                    <mxGeometry width="120" height="38" as="geometry">
                        <mxRectangle width="120" height="38" as="alternateBounds"/>
                    </mxGeometry>
                </mxCell>
                <mxCell id="307" value="int" style="shape=partialRectangle;html=1;whiteSpace=wrap;connectable=0;fillColor=none;top=0;left=0;bottom=0;right=0;overflow=hidden;pointerEvents=1;" parent="305" vertex="1">
                    <mxGeometry x="120" width="80" height="38" as="geometry">
                        <mxRectangle width="80" height="38" as="alternateBounds"/>
                    </mxGeometry>
                </mxCell>
                <mxCell id="308" value="8" style="shape=partialRectangle;html=1;whiteSpace=wrap;connectable=0;fillColor=none;top=0;left=0;bottom=0;right=0;overflow=hidden;pointerEvents=1;" parent="305" vertex="1">
                    <mxGeometry x="200" width="80" height="38" as="geometry">
                        <mxRectangle width="80" height="38" as="alternateBounds"/>
                    </mxGeometry>
                </mxCell>
                <mxCell id="309" value="Уникальный идентификатор урока" style="shape=partialRectangle;html=1;whiteSpace=wrap;connectable=0;fillColor=none;top=0;left=0;bottom=0;right=0;overflow=hidden;pointerEvents=1;" parent="305" vertex="1">
                    <mxGeometry x="280" width="320" height="38" as="geometry">
                        <mxRectangle width="320" height="38" as="alternateBounds"/>
                    </mxGeometry>
                </mxCell>
                <mxCell id="310" value="" style="shape=partialRectangle;html=1;whiteSpace=wrap;collapsible=0;dropTarget=0;pointerEvents=0;fillColor=none;top=0;left=0;bottom=0;right=0;points=[[0,0.5],[1,0.5]];portConstraint=eastwest;" parent="299" vertex="1">
                    <mxGeometry y="117" width="600" height="39" as="geometry"/>
                </mxCell>
                <mxCell id="311" value="schedule_id" style="shape=partialRectangle;html=1;whiteSpace=wrap;connectable=0;fillColor=none;top=0;left=0;bottom=0;right=0;overflow=hidden;pointerEvents=1;" parent="310" vertex="1">
                    <mxGeometry width="120" height="39" as="geometry">
                        <mxRectangle width="120" height="39" as="alternateBounds"/>
                    </mxGeometry>
                </mxCell>
                <mxCell id="312" value="int" style="shape=partialRectangle;html=1;whiteSpace=wrap;connectable=0;fillColor=none;top=0;left=0;bottom=0;right=0;overflow=hidden;pointerEvents=1;" parent="310" vertex="1">
                    <mxGeometry x="120" width="80" height="39" as="geometry">
                        <mxRectangle width="80" height="39" as="alternateBounds"/>
                    </mxGeometry>
                </mxCell>
                <mxCell id="313" value="2" style="shape=partialRectangle;html=1;whiteSpace=wrap;connectable=0;fillColor=none;top=0;left=0;bottom=0;right=0;overflow=hidden;pointerEvents=1;" parent="310" vertex="1">
                    <mxGeometry x="200" width="80" height="39" as="geometry">
                        <mxRectangle width="80" height="39" as="alternateBounds"/>
                    </mxGeometry>
                </mxCell>
                <mxCell id="314" value="Уникальный идентификатор номера урока" style="shape=partialRectangle;html=1;whiteSpace=wrap;connectable=0;fillColor=none;top=0;left=0;bottom=0;right=0;overflow=hidden;pointerEvents=1;" parent="310" vertex="1">
                    <mxGeometry x="280" width="320" height="39" as="geometry">
                        <mxRectangle width="320" height="39" as="alternateBounds"/>
                    </mxGeometry>
                </mxCell>
                <mxCell id="315" value="" style="shape=partialRectangle;html=1;whiteSpace=wrap;collapsible=0;dropTarget=0;pointerEvents=0;fillColor=none;top=0;left=0;bottom=0;right=0;points=[[0,0.5],[1,0.5]];portConstraint=eastwest;" parent="299" vertex="1">
                    <mxGeometry y="156" width="600" height="44" as="geometry"/>
                </mxCell>
                <mxCell id="316" value="cabinet_id" style="shape=partialRectangle;html=1;whiteSpace=wrap;connectable=0;fillColor=none;top=0;left=0;bottom=0;right=0;overflow=hidden;pointerEvents=1;" parent="315" vertex="1">
                    <mxGeometry width="120" height="44" as="geometry">
                        <mxRectangle width="120" height="44" as="alternateBounds"/>
                    </mxGeometry>
                </mxCell>
                <mxCell id="317" value="int" style="shape=partialRectangle;html=1;whiteSpace=wrap;connectable=0;fillColor=none;top=0;left=0;bottom=0;right=0;overflow=hidden;pointerEvents=1;" parent="315" vertex="1">
                    <mxGeometry x="120" width="80" height="44" as="geometry">
                        <mxRectangle width="80" height="44" as="alternateBounds"/>
                    </mxGeometry>
                </mxCell>
                <mxCell id="318" value="8" style="shape=partialRectangle;html=1;whiteSpace=wrap;connectable=0;fillColor=none;top=0;left=0;bottom=0;right=0;overflow=hidden;pointerEvents=1;" parent="315" vertex="1">
                    <mxGeometry x="200" width="80" height="44" as="geometry">
                        <mxRectangle width="80" height="44" as="alternateBounds"/>
                    </mxGeometry>
                </mxCell>
                <mxCell id="319" value="Уникальный идентификатор кабинета" style="shape=partialRectangle;html=1;whiteSpace=wrap;connectable=0;fillColor=none;top=0;left=0;bottom=0;right=0;overflow=hidden;pointerEvents=1;" parent="315" vertex="1">
                    <mxGeometry x="280" width="320" height="44" as="geometry">
                        <mxRectangle width="320" height="44" as="alternateBounds"/>
                    </mxGeometry>
                </mxCell>
                <mxCell id="320" value="" style="shape=partialRectangle;html=1;whiteSpace=wrap;collapsible=0;dropTarget=0;pointerEvents=0;fillColor=none;top=0;left=0;bottom=0;right=0;points=[[0,0.5],[1,0.5]];portConstraint=eastwest;" parent="299" vertex="1">
                    <mxGeometry y="200" width="600" height="39" as="geometry"/>
                </mxCell>
                <mxCell id="321" value="teacher_id" style="shape=partialRectangle;html=1;whiteSpace=wrap;connectable=0;fillColor=none;top=0;left=0;bottom=0;right=0;overflow=hidden;pointerEvents=1;" parent="320" vertex="1">
                    <mxGeometry width="120" height="39" as="geometry">
                        <mxRectangle width="120" height="39" as="alternateBounds"/>
                    </mxGeometry>
                </mxCell>
                <mxCell id="322" value="int" style="shape=partialRectangle;html=1;whiteSpace=wrap;connectable=0;fillColor=none;top=0;left=0;bottom=0;right=0;overflow=hidden;pointerEvents=1;" parent="320" vertex="1">
                    <mxGeometry x="120" width="80" height="39" as="geometry">
                        <mxRectangle width="80" height="39" as="alternateBounds"/>
                    </mxGeometry>
                </mxCell>
                <mxCell id="323" value="10" style="shape=partialRectangle;html=1;whiteSpace=wrap;connectable=0;fillColor=none;top=0;left=0;bottom=0;right=0;overflow=hidden;pointerEvents=1;" parent="320" vertex="1">
                    <mxGeometry x="200" width="80" height="39" as="geometry">
                        <mxRectangle width="80" height="39" as="alternateBounds"/>
                    </mxGeometry>
                </mxCell>
                <mxCell id="324" value="Уникальный идентификатор учителя" style="shape=partialRectangle;html=1;whiteSpace=wrap;connectable=0;fillColor=none;top=0;left=0;bottom=0;right=0;overflow=hidden;pointerEvents=1;" parent="320" vertex="1">
                    <mxGeometry x="280" width="320" height="39" as="geometry">
                        <mxRectangle width="320" height="39" as="alternateBounds"/>
                    </mxGeometry>
                </mxCell>
                <mxCell id="325" value="" style="shape=partialRectangle;html=1;whiteSpace=wrap;collapsible=0;dropTarget=0;pointerEvents=0;fillColor=none;top=0;left=0;bottom=0;right=0;points=[[0,0.5],[1,0.5]];portConstraint=eastwest;" parent="299" vertex="1">
                    <mxGeometry y="239" width="600" height="38" as="geometry"/>
                </mxCell>
                <mxCell id="326" value="pupil_id" style="shape=partialRectangle;html=1;whiteSpace=wrap;connectable=0;fillColor=none;top=0;left=0;bottom=0;right=0;overflow=hidden;pointerEvents=1;" parent="325" vertex="1">
                    <mxGeometry width="120" height="38" as="geometry">
                        <mxRectangle width="120" height="38" as="alternateBounds"/>
                    </mxGeometry>
                </mxCell>
                <mxCell id="327" value="int" style="shape=partialRectangle;html=1;whiteSpace=wrap;connectable=0;fillColor=none;top=0;left=0;bottom=0;right=0;overflow=hidden;pointerEvents=1;" parent="325" vertex="1">
                    <mxGeometry x="120" width="80" height="38" as="geometry">
                        <mxRectangle width="80" height="38" as="alternateBounds"/>
                    </mxGeometry>
                </mxCell>
                <mxCell id="328" value="8" style="shape=partialRectangle;html=1;whiteSpace=wrap;connectable=0;fillColor=none;top=0;left=0;bottom=0;right=0;overflow=hidden;pointerEvents=1;" parent="325" vertex="1">
                    <mxGeometry x="200" width="80" height="38" as="geometry">
                        <mxRectangle width="80" height="38" as="alternateBounds"/>
                    </mxGeometry>
                </mxCell>
                <mxCell id="329" value="Уникальный идентификатор ученика" style="shape=partialRectangle;html=1;whiteSpace=wrap;connectable=0;fillColor=none;top=0;left=0;bottom=0;right=0;overflow=hidden;pointerEvents=1;" parent="325" vertex="1">
                    <mxGeometry x="280" width="320" height="38" as="geometry">
                        <mxRectangle width="320" height="38" as="alternateBounds"/>
                    </mxGeometry>
                </mxCell>
                <mxCell id="330" value="" style="shape=partialRectangle;html=1;whiteSpace=wrap;collapsible=0;dropTarget=0;pointerEvents=0;fillColor=none;top=0;left=0;bottom=0;right=0;points=[[0,0.5],[1,0.5]];portConstraint=eastwest;" parent="299" vertex="1">
                    <mxGeometry y="277" width="600" height="38" as="geometry"/>
                </mxCell>
                <mxCell id="331" value="row" style="shape=partialRectangle;html=1;whiteSpace=wrap;connectable=0;fillColor=none;top=0;left=0;bottom=0;right=0;overflow=hidden;pointerEvents=1;" parent="330" vertex="1">
                    <mxGeometry width="120" height="38" as="geometry">
                        <mxRectangle width="120" height="38" as="alternateBounds"/>
                    </mxGeometry>
                </mxCell>
                <mxCell id="332" value="int" style="shape=partialRectangle;html=1;whiteSpace=wrap;connectable=0;fillColor=none;top=0;left=0;bottom=0;right=0;overflow=hidden;pointerEvents=1;" parent="330" vertex="1">
                    <mxGeometry x="120" width="80" height="38" as="geometry">
                        <mxRectangle width="80" height="38" as="alternateBounds"/>
                    </mxGeometry>
                </mxCell>
                <mxCell id="333" value="4" style="shape=partialRectangle;html=1;whiteSpace=wrap;connectable=0;fillColor=none;top=0;left=0;bottom=0;right=0;overflow=hidden;pointerEvents=1;" parent="330" vertex="1">
                    <mxGeometry x="200" width="80" height="38" as="geometry">
                        <mxRectangle width="80" height="38" as="alternateBounds"/>
                    </mxGeometry>
                </mxCell>
                <mxCell id="334" value="Ряд" style="shape=partialRectangle;html=1;whiteSpace=wrap;connectable=0;fillColor=none;top=0;left=0;bottom=0;right=0;overflow=hidden;pointerEvents=1;" parent="330" vertex="1">
                    <mxGeometry x="280" width="320" height="38" as="geometry">
                        <mxRectangle width="320" height="38" as="alternateBounds"/>
                    </mxGeometry>
                </mxCell>
                <mxCell id="335" value="" style="shape=partialRectangle;html=1;whiteSpace=wrap;collapsible=0;dropTarget=0;pointerEvents=0;fillColor=none;top=0;left=0;bottom=0;right=0;points=[[0,0.5],[1,0.5]];portConstraint=eastwest;" parent="299" vertex="1">
                    <mxGeometry y="315" width="600" height="38" as="geometry"/>
                </mxCell>
                <mxCell id="336" value="desk" style="shape=partialRectangle;html=1;whiteSpace=wrap;connectable=0;fillColor=none;top=0;left=0;bottom=0;right=0;overflow=hidden;pointerEvents=1;" parent="335" vertex="1">
                    <mxGeometry width="120" height="38" as="geometry">
                        <mxRectangle width="120" height="38" as="alternateBounds"/>
                    </mxGeometry>
                </mxCell>
                <mxCell id="337" value="int" style="shape=partialRectangle;html=1;whiteSpace=wrap;connectable=0;fillColor=none;top=0;left=0;bottom=0;right=0;overflow=hidden;pointerEvents=1;" parent="335" vertex="1">
                    <mxGeometry x="120" width="80" height="38" as="geometry">
                        <mxRectangle width="80" height="38" as="alternateBounds"/>
                    </mxGeometry>
                </mxCell>
                <mxCell id="338" value="4" style="shape=partialRectangle;html=1;whiteSpace=wrap;connectable=0;fillColor=none;top=0;left=0;bottom=0;right=0;overflow=hidden;pointerEvents=1;" parent="335" vertex="1">
                    <mxGeometry x="200" width="80" height="38" as="geometry">
                        <mxRectangle width="80" height="38" as="alternateBounds"/>
                    </mxGeometry>
                </mxCell>
                <mxCell id="339" value="Парта в ряду" style="shape=partialRectangle;html=1;whiteSpace=wrap;connectable=0;fillColor=none;top=0;left=0;bottom=0;right=0;overflow=hidden;pointerEvents=1;" parent="335" vertex="1">
                    <mxGeometry x="280" width="320" height="38" as="geometry">
                        <mxRectangle width="320" height="38" as="alternateBounds"/>
                    </mxGeometry>
                </mxCell>
                <mxCell id="340" value="" style="shape=partialRectangle;html=1;whiteSpace=wrap;collapsible=0;dropTarget=0;pointerEvents=0;fillColor=none;top=0;left=0;bottom=0;right=0;points=[[0,0.5],[1,0.5]];portConstraint=eastwest;" parent="299" vertex="1">
                    <mxGeometry y="353" width="600" height="38" as="geometry"/>
                </mxCell>
                <mxCell id="341" value="variant" style="shape=partialRectangle;html=1;whiteSpace=wrap;connectable=0;fillColor=none;top=0;left=0;bottom=0;right=0;overflow=hidden;pointerEvents=1;" parent="340" vertex="1">
                    <mxGeometry width="120" height="38" as="geometry">
                        <mxRectangle width="120" height="38" as="alternateBounds"/>
                    </mxGeometry>
                </mxCell>
                <mxCell id="342" value="int" style="shape=partialRectangle;html=1;whiteSpace=wrap;connectable=0;fillColor=none;top=0;left=0;bottom=0;right=0;overflow=hidden;pointerEvents=1;" parent="340" vertex="1">
                    <mxGeometry x="120" width="80" height="38" as="geometry">
                        <mxRectangle width="80" height="38" as="alternateBounds"/>
                    </mxGeometry>
                </mxCell>
                <mxCell id="343" value="2" style="shape=partialRectangle;html=1;whiteSpace=wrap;connectable=0;fillColor=none;top=0;left=0;bottom=0;right=0;overflow=hidden;pointerEvents=1;" parent="340" vertex="1">
                    <mxGeometry x="200" width="80" height="38" as="geometry">
                        <mxRectangle width="80" height="38" as="alternateBounds"/>
                    </mxGeometry>
                </mxCell>
                <mxCell id="344" value="Вариант" style="shape=partialRectangle;html=1;whiteSpace=wrap;connectable=0;fillColor=none;top=0;left=0;bottom=0;right=0;overflow=hidden;pointerEvents=1;" parent="340" vertex="1">
                    <mxGeometry x="280" width="320" height="38" as="geometry">
                        <mxRectangle width="320" height="38" as="alternateBounds"/>
                    </mxGeometry>
                </mxCell>
                <mxCell id="351" style="edgeStyle=none;html=1;exitX=1;exitY=0.5;exitDx=0;exitDy=0;entryX=1;entryY=0.5;entryDx=0;entryDy=0;" parent="1" source="229" target="310" edge="1">
                    <mxGeometry relative="1" as="geometry">
                        <Array as="points">
                            <mxPoint x="780" y="-182"/>
                            <mxPoint x="780" y="-584"/>
                        </Array>
                    </mxGeometry>
                </mxCell>
                <mxCell id="352" style="edgeStyle=none;html=1;exitX=0;exitY=0.5;exitDx=0;exitDy=0;entryX=1;entryY=0.5;entryDx=0;entryDy=0;" parent="1" source="305" target="275" edge="1">
                    <mxGeometry relative="1" as="geometry">
                        <Array as="points">
                            <mxPoint x="-360" y="-622"/>
                            <mxPoint x="-360" y="537"/>
                        </Array>
                    </mxGeometry>
                </mxCell>
                <mxCell id="353" style="edgeStyle=none;html=1;exitX=1;exitY=0.5;exitDx=0;exitDy=0;entryX=1;entryY=0.5;entryDx=0;entryDy=0;" parent="1" source="192" target="315" edge="1">
                    <mxGeometry relative="1" as="geometry">
                        <Array as="points">
                            <mxPoint x="820" y="1178"/>
                            <mxPoint x="820" y="-542"/>
                        </Array>
                    </mxGeometry>
                </mxCell>
                <mxCell id="354" style="edgeStyle=none;html=1;exitX=1;exitY=0.5;exitDx=0;exitDy=0;entryX=1;entryY=0.5;entryDx=0;entryDy=0;" parent="1" source="153" target="320" edge="1">
                    <mxGeometry relative="1" as="geometry">
                        <Array as="points">
                            <mxPoint x="800" y="818"/>
                            <mxPoint x="800" y="-500"/>
                        </Array>
                    </mxGeometry>
                </mxCell>
            </root>
        </mxGraphModel>
    </diagram>
</mxfile>